<?xml version="1.0" encoding="UTF-8"?>
<!DOCTYPE svg PUBLIC "-//W3C//DTD SVG 1.1//EN" "http://www.w3.org/Graphics/SVG/1.1/DTD/svg11.dtd">
<!-- Creator: CorelDRAW 2021 (64-Bit) -->
<svg xmlns="http://www.w3.org/2000/svg" xml:space="preserve" width="58.2379mm" height="69.2809mm" version="1.1" style="shape-rendering:geometricPrecision; text-rendering:geometricPrecision; image-rendering:optimizeQuality; fill-rule:evenodd; clip-rule:evenodd"
viewBox="0 0 1234.38 1468.44"
 xmlns:xlink="http://www.w3.org/1999/xlink"
 xmlns:xodm="http://www.corel.com/coreldraw/odm/2003">
 <defs>
  <style type="text/css">
   <![CDATA[
    .fil0 {fill:#D70000}
    .fil4 {fill:#F4F4F4}
    .fil5 {fill:#F9F7E9}
    .fil3 {fill:#FADA54}
    .fil2 {fill:#FADD56}
    .fil6 {fill:#FBDC5B}
    .fil1 {fill:#FFDB52}
   ]]>
  </style>
 </defs>
 <g id="Layer_x0020_1">
  <metadata id="CorelCorpID_0Corel-Layer"/>
  <g id="_1892619690336">
   <path class="fil0" d="M615.47 1458.54c-4.98,-10.47 49.51,-133.27 53.46,-158.62l-89.56 130.64c0.55,-13.3 22.45,-68.39 28.35,-84.15 9.86,-26.37 19.22,-55.18 29.71,-81.88l176.32 -484.83c-20.13,2.3 -250.54,2.37 -265.37,-0.69 1.05,-9.99 4.11,-12.97 5.33,-22.53 28.98,-0.82 256.2,-2.05 267.89,0.99 -9.75,-4.82 -271.31,-0.24 -308.98,-1.92 0.94,-12.9 47.63,-123.42 58.62,-147.55 30.31,-66.57 27.4,-58.84 10.14,-95.68 -34.81,-74.3 -70.04,-157.64 -105.41,-230.75 -7.18,-14.85 -14.23,-31.7 -21.13,-46.84 -19.65,-43.12 -95,-201.49 -102.35,-230.4 -14.94,-7.43 -148.16,-3.01 -177.19,-3.01 -29.61,0 -156.45,-1.77 -175.29,1.2 0.41,7.39 -1.48,-1.07 4.8,7.02l16.19 29.6c7.49,13.33 13.45,24.83 21.55,39.64l181.4 341.25c22.45,34.74 94.12,177.79 116.26,217.48 3.45,6.19 144.99,262.4 147.1,283.12 2.13,20.88 0.1,269.6 0.1,304.42 0,79.33 -2.5,162.82 0.45,241.65 25.95,3.44 103.12,1.41 126.4,-2.65l1.23 -5.5z"/>
   <path class="fil1" d="M568.96 735.17l283.02 0.72 -14.25 40.97 21.49 1.39c-0.19,24.18 -26.7,76.14 -35.28,104.88 -1.17,3.93 -2.12,5.32 -4.11,12.13l-33.81 91.05c-20.53,52.09 -39.83,116.28 -61.1,168.25l-13.45 40.87c8.03,-7.58 71.75,-106.93 85.25,-125.98 43.37,-61.21 95.5,-143.97 138.03,-207.15l167.29 -250.62c10.08,-14.95 49.02,-71.19 55.29,-85.1l-304.6 0.24c0.42,-9.52 116.86,-237.2 124.16,-251.65 41.49,-82.07 83.91,-166.19 123.91,-248.08 -27.62,-4.67 -100.34,-0.77 -132.72,-0.77 -20.74,0 -121.2,-4.36 -130.99,2.11l24.82 -0.28c-8.71,14.86 -9.62,28.33 -19.27,44.64l-40.77 100.21c-1.21,2.44 -2.25,4.19 -3.08,5.92 -0.97,2.04 -1.22,2.73 -2.14,4.84 -2.97,6.85 -5.84,11.61 -8.97,20.35 -9.8,27.38 -16.67,38.91 -27.18,63.45 -9.22,21.52 -19.36,52.03 -28.55,69.3 -0.24,0.45 -0.58,1.02 -0.83,1.45 -9.19,16.04 -19.26,55.2 -31.41,75.24 -4.22,6.96 -1.56,2.66 -4.72,11.06l-37.54 87.45c-6.07,9.33 -3.52,14.54 -7.88,24.38l-32.8 75.74c-10.93,35.1 -13.66,30.15 -26.34,59.86l-6 16.85c-1.57,3.91 -2.56,6.98 -4.36,11.52 -0.21,0.54 -0.45,1.13 -0.67,1.66l-4.33 9.37c-3.42,7.56 -6.51,12.46 -6.15,23.7z"/>
   <path class="fil2" d="M668.93 1299.92c-3.95,25.35 -58.44,148.14 -53.46,158.62 12.09,-10.47 29.08,-43.21 40.1,-57.72 26.59,-35.01 70.3,-109.88 97.53,-145.53l135.22 -203.24c37.18,-54.05 80.05,-122.79 116.31,-174.42 46.14,-65.68 111.5,-172.52 154.71,-231.46 8.64,-11.79 74.62,-109.32 75.04,-118 -15.96,-3.09 -34.59,-2.12 -50.47,-1.16 -21.98,30.01 -44.61,66.6 -64.94,97.05 -128.78,192.79 -258.13,390.71 -387.31,580.35 -10.86,15.94 -20.65,30.88 -31.89,47.58 -7.06,10.5 -26.25,36.08 -30.84,47.95z"/>
   <path class="fil3" d="M885.94 505.4l50.36 0.37c5.48,-8.15 10.21,-20.29 14.48,-29.6l29.83 -58.7c4.56,-9.48 9.74,-21.59 14.78,-30.63 21.39,-38.38 40.01,-80.13 60.19,-119.3 10.4,-20.19 19.15,-38.41 29.19,-59.45 17.67,-37 87.4,-164.43 88,-179.94 -25.61,-3.56 -20.63,-2.14 -47.43,-1.48 -18.9,32.63 -100.91,198.13 -119.89,238.46 -12.43,26.42 -114.28,223.23 -119.51,240.26z"/>
   <path class="fil4" d="M568.96 735.17c-0.36,-11.24 2.74,-16.14 6.15,-23.7l4.33 -9.37c0.22,-0.53 0.46,-1.13 0.67,-1.66 1.8,-4.54 2.79,-7.6 4.36,-11.52l6 -16.85c12.69,-29.71 15.41,-24.76 26.34,-59.86l32.8 -75.74c4.36,-9.85 1.81,-15.05 7.88,-24.38l37.54 -87.45c3.15,-8.4 0.5,-4.1 4.72,-11.06 12.15,-20.04 22.22,-59.2 31.41,-75.24 0.25,-0.43 0.59,-1.01 0.83,-1.45 9.19,-17.28 19.33,-47.78 28.55,-69.3 10.51,-24.54 17.37,-36.07 27.18,-63.45 3.13,-8.74 6,-13.5 8.97,-20.35 0.92,-2.12 1.16,-2.8 2.14,-4.84 0.82,-1.73 1.87,-3.49 3.08,-5.92l40.77 -100.21c9.65,-16.31 10.56,-29.79 19.27,-44.64l-24.82 0.28c-6.45,6.86 -66.16,154.48 -75.56,176.94 -24.43,58.38 -49.98,117.76 -73.53,176.31 -23.1,57.43 -48.29,118.02 -73.51,176.23 -14.39,33.21 -63.89,148.82 -73.43,177.13l27.88 0.14z"/>
   <path class="fil5" d="M711.48 1195.42l13.45 -40.87c21.27,-51.96 40.57,-116.15 61.1,-168.25l33.81 -91.05c1.99,-6.81 2.94,-8.19 4.11,-12.13 8.58,-28.73 35.08,-80.7 35.28,-104.88l-21.49 -1.39c-17.54,41.87 -184.17,503.23 -183.12,505.85 9.12,-15.28 18.22,-28.1 28.42,-42.93 8.03,-11.69 21.87,-30.55 28.45,-44.36z"/>
   <path class="fil6" d="M813.75 779.69l7.85 -22.23c-11.69,-3.04 -238.91,-1.81 -267.89,-0.99 -1.22,9.56 -4.28,12.54 -5.33,22.53 14.83,3.06 245.24,2.99 265.37,0.69z"/>
  </g>
 </g>
</svg>
