<svg xmlns="http://www.w3.org/2000/svg" width="1024" height="1024" viewBox="0 0 1024 1024">
<g>
<path d="M 520.18 739.50 C524.87,731.80 534.44,715.71 541.46,703.75 C548.48,691.79 554.55,682.00 554.94,682.00 C555.33,682.00 557.30,678.70 559.32,674.66 C563.53,666.26 571.30,653.14 575.11,648.00 C577.79,644.38 584.46,632.94 584.49,631.92 C584.52,630.66 588.50,624.00 589.23,624.00 C589.65,624.00 590.00,623.47 590.00,622.81 C590.00,622.16 592.70,617.00 596.00,611.34 C596.25,610.91 596.50,610.49 596.74,610.07 C595.71,612.01 595.12,613.45 595.32,613.65 C595.61,613.95 596.57,612.79 597.45,611.09 C598.33,609.39 599.38,608.00 599.78,607.99 C600.64,607.98 603.00,603.12 603.00,601.34 C603.00,599.94 598.83,592.64 593.52,584.76 C591.58,581.88 590.00,579.17 590.00,578.74 C590.00,578.31 588.88,576.19 587.51,574.02 C585.19,570.33 585.02,567.00 587.16,567.00 C587.68,567.00 588.57,565.66 589.14,564.03 C589.93,561.75 590.97,560.91 593.60,560.42 C597.49,559.68 598.87,558.27 596.56,557.39 C593.97,556.39 594.80,555.00 598.00,555.00 C599.65,555.00 601.00,554.55 601.00,554.00 C601.00,553.45 601.67,553.00 602.49,553.00 C604.52,553.00 613.00,563.99 613.00,566.63 C613.00,567.80 613.67,569.32 614.50,570.00 C615.33,570.68 616.00,572.04 616.00,573.01 C616.00,574.88 619.25,576.22 621.60,575.32 C622.37,575.03 623.00,573.76 623.00,572.50 C623.00,571.24 623.63,569.97 624.40,569.68 C625.17,569.38 626.37,567.42 627.06,565.32 C627.75,563.23 629.37,559.52 630.66,557.09 C633.74,551.32 633.27,551.12 630.63,555.05 C632.81,551.54 634.09,549.48 635.92,546.46 L 640.21 541.68 C644.46,536.94 646.00,536.54 646.00,540.17 C646.00,542.49 647.84,542.53 649.75,540.25 C650.80,539.00 650.76,539.26 649.62,541.20 C648.74,542.68 648.40,544.13 648.85,544.41 C650.20,545.24 658.39,536.61 659.76,532.91 C660.87,529.91 660.81,529.34 659.26,528.19 C658.29,527.48 657.63,526.23 657.80,525.43 C657.96,524.63 657.40,523.71 656.55,523.38 C653.91,522.37 654.64,517.39 657.75,515.21 C660.48,513.29 660.51,513.29 662.61,515.39 C665.12,517.91 666.80,520.61 665.26,519.66 C664.68,519.30 663.97,519.65 663.67,520.42 C662.74,522.85 666.10,523.13 670.52,520.99 C674.09,519.26 675.18,519.13 677.38,520.13 C680.52,521.56 680.52,521.60 678.01,527.96 C676.92,530.73 676.23,533.00 676.47,533.00 C676.51,533.00 676.60,532.91 676.74,532.73 C676.00,533.93 675.19,535.24 674.31,536.68 L 672.03 538.28 C670.67,539.22 668.31,540.00 666.78,540.00 C664.19,540.00 663.56,540.80 663.90,543.64 C663.97,544.26 663.36,545.03 662.53,545.35 C661.64,545.69 661.28,546.58 661.65,547.53 C661.99,548.41 661.77,550.12 661.16,551.32 C660.55,552.52 658.90,556.65 657.48,560.50 C654.28,569.18 654.99,568.44 663.80,553.84 C667.64,547.47 671.60,541.01 672.65,539.40 C666.81,548.93 658.37,562.83 647.69,580.51 C647.78,580.07 647.28,580.32 646.22,580.88 C645.07,581.50 643.83,582.94 643.47,584.10 C643.10,585.26 641.72,587.80 640.40,589.74 C639.08,591.69 638.01,594.00 638.02,594.89 C638.03,595.77 638.51,595.45 640.28,592.78 C628.41,612.44 614.29,635.89 598.29,662.50 C536.22,765.78 530.92,774.47 529.25,775.75 C527.98,776.72 512.75,776.99 460.56,776.94 C448.15,776.92 436.40,776.87 426.22,776.79 C431.27,776.63 434.73,776.37 434.50,776.00 C434.14,775.41 427.18,774.92 417.69,774.80 C408.79,774.69 405.05,774.44 409.40,774.25 C415.21,774.00 417.93,773.42 419.67,772.05 C421.81,770.36 421.89,770.03 420.49,768.63 C419.64,767.78 418.28,767.34 417.47,767.65 C416.66,767.96 415.27,767.93 414.38,767.59 C412.98,767.05 413.08,766.65 415.13,764.66 C416.43,763.38 418.29,762.05 419.25,761.70 C423.48,760.16 419.91,753.42 415.27,754.21 C414.31,754.37 413.42,753.76 413.22,752.79 C412.91,751.29 414.02,751.04 422.18,750.75 C427.18,750.57 428.39,750.46 425.23,750.36 C449.65,750.76 472.53,750.41 473.86,749.59 C474.55,749.16 473.73,747.21 471.60,744.21 C469.77,741.62 460.97,727.35 452.05,712.50 C443.97,699.05 436.61,687.34 434.61,684.72 C435.66,685.43 436.33,686.44 437.26,687.84 C438.75,690.08 438.83,690.10 439.44,688.19 C439.78,687.11 440.95,685.98 442.03,685.70 C443.63,685.28 444.00,684.32 444.00,680.59 C444.00,676.32 444.59,675.46 447.25,675.88 C448.54,676.08 448.07,674.30 446.50,673.00 C444.03,670.95 444.61,666.50 447.53,665.17 C450.61,663.76 451.63,661.47 450.03,659.54 C447.86,656.92 449.72,654.30 454.28,653.53 C458.12,652.88 458.29,652.74 456.16,651.91 C454.87,651.41 453.41,651.25 452.91,651.56 C452.41,651.87 451.51,650.86 450.92,649.31 C450.60,648.46 450.36,647.85 450.21,647.23 C449.82,645.64 449.95,643.92 450.41,637.68 L 450.84 631.86 L 450.18 632.90 C453.29,627.68 457.67,620.40 462.37,612.65 C465.66,607.22 468.38,602.75 470.62,599.04 C464.75,608.95 457.79,620.63 455.12,625.00 C454.09,626.69 454.85,626.25 457.46,623.63 C461.73,619.36 463.42,616.45 472.16,598.43 C473.24,596.19 475.23,593.08 476.57,591.52 C477.90,589.96 479.00,588.29 479.00,587.80 C479.00,587.32 479.96,585.62 481.13,584.04 C482.95,581.57 483.10,580.72 482.14,577.98 C480.91,574.44 482.06,571.00 484.49,571.00 C486.39,571.00 491.19,566.12 490.46,564.94 C490.14,564.42 490.57,564.00 491.41,564.00 C492.36,564.00 492.72,563.43 492.36,562.50 C491.96,561.46 492.43,561.00 493.89,561.00 C495.05,561.00 496.00,560.55 496.00,560.00 C496.00,559.45 496.90,559.00 498.00,559.00 C499.10,559.00 500.00,559.34 500.00,559.76 C500.00,560.18 500.99,561.14 502.20,561.90 L 503.78 562.88 C504.72,564.42 505.57,565.82 506.28,567.00 L 507.66 569.27 C506.88,568.24 506.31,567.89 506.19,568.45 C506.02,569.24 506.63,571.03 507.55,572.44 C510.03,576.21 511.09,575.54 509.34,572.05 L 513.24 578.50 L 510.41 584.00 C509.81,585.16 508.54,587.41 506.87,590.30 C508.44,587.20 508.28,586.52 506.50,588.00 C505.67,588.68 505.00,589.99 505.00,590.90 C505.00,591.81 503.72,593.95 502.16,595.66 C499.31,598.79 495.00,606.23 495.00,608.03 C495.00,609.43 495.49,609.22 497.70,605.81 C497.40,606.31 497.09,606.82 496.79,607.32 C490.85,617.12 486.00,625.34 486.00,625.58 C486.00,625.83 484.48,628.39 482.62,631.27 C481.31,633.29 479.83,635.66 478.27,638.22 C479.95,635.36 481.98,632.08 483.27,630.18 C484.88,627.80 485.94,625.60 485.63,625.29 C484.90,624.56 479.00,630.84 478.99,632.36 C478.99,632.99 478.28,634.85 477.41,636.50 C476.55,638.15 475.22,640.96 474.47,642.75 C473.25,645.66 473.12,646.49 473.97,645.38 C473.59,646.01 473.22,646.64 472.85,647.27 C472.99,646.82 472.63,647.08 471.66,647.87 C470.75,648.63 470.00,649.77 470.00,650.42 C470.00,651.07 468.20,653.35 466.00,655.50 C463.80,657.65 461.99,660.33 461.97,661.45 C461.92,664.26 459.40,667.37 457.69,666.71 C455.64,665.93 456.10,669.19 458.49,672.36 C460.96,675.64 461.08,675.65 460.39,672.19 C461.17,674.11 463.02,677.58 465.17,681.08 C468.02,685.71 476.49,699.62 484.00,712.00 C507.38,750.53 510.30,755.11 510.99,754.29 C511.36,753.86 515.50,747.20 520.18,739.50 ZM 482.13 565.46 C481.12,565.78 479.87,566.97 479.36,568.11 C478.46,570.14 478.40,570.14 476.14,568.32 C474.70,567.15 473.78,565.24 473.67,563.19 C473.50,559.92 475.27,558.15 480.24,556.61 C481.65,556.17 481.80,555.60 481.01,553.54 C480.18,551.34 480.32,551.00 482.08,551.00 C483.20,551.00 485.38,549.62 486.92,547.92 L 489.73 544.85 L 491.87 547.56 C494.39,550.77 494.76,556.00 492.47,556.00 C491.63,556.00 490.68,556.67 490.36,557.49 C490.05,558.32 489.44,558.77 489.01,558.51 C487.81,557.76 485.81,560.67 485.65,563.38 C485.57,564.72 485.16,565.60 484.74,565.34 C484.32,565.08 483.15,565.13 482.13,565.46 ZM 581.89 557.37 C582.58,558.20 582.71,559.06 582.17,559.39 C581.67,559.71 580.41,558.79 579.38,557.35 C577.68,554.98 574.47,551.23 570.48,546.93 C569.68,546.06 568.75,543.99 568.41,542.32 C567.94,539.96 568.22,539.11 569.65,538.49 C572.92,537.08 573.98,537.14 574.90,538.79 C575.58,540.01 576.14,540.13 577.15,539.30 C577.89,538.70 580.85,538.24 583.73,538.29 C588.51,538.37 588.84,538.52 587.48,540.02 C586.67,540.92 586.00,542.36 586.00,543.22 C586.00,545.04 582.71,546.62 582.19,545.06 C581.73,543.68 578.00,543.68 578.00,545.06 C578.00,545.64 577.55,545.84 577.00,545.50 C576.45,545.16 576.00,545.28 576.00,545.77 C576.00,546.95 580.35,555.52 581.89,557.37 ZM 478.51 547.25 C478.68,548.76 478.75,549.99 478.66,549.97 C478.57,549.95 477.81,549.54 476.97,549.04 C474.82,547.78 474.99,538.62 477.18,538.20 C478.97,537.86 480.38,541.82 479.06,543.45 C478.59,544.03 478.34,545.74 478.51,547.25 ZM 470.62 551.55 C470.68,553.45 470.46,554.95 470.12,554.88 C467.00,554.30 466.15,553.49 465.72,550.70 C465.13,546.81 465.17,546.75 468.13,547.50 C470.02,547.97 470.52,548.80 470.62,551.55 ZM 440.00 641.88 C440.00,644.27 439.99,644.28 438.20,643.15 C437.17,642.49 437.22,642.07 438.45,641.04 C439.77,639.95 440.00,640.08 440.00,641.88 ZM 455.00 663.00 C455.00,663.55 455.45,664.00 456.00,664.00 C456.55,664.00 457.00,663.55 457.00,663.00 C457.00,662.45 456.55,662.00 456.00,662.00 C455.45,662.00 455.00,662.45 455.00,663.00 ZM 579.18 547.78 C579.83,548.43 580.13,549.20 579.85,549.48 C579.18,550.15 578.00,548.97 578.00,547.63 C578.00,547.01 578.47,547.07 579.18,547.78 ZM 466.75 657.85 C463.83,663.02 461.50,667.36 460.51,669.51 C461.03,667.58 462.46,664.90 465.37,660.13 C465.83,659.37 466.30,658.60 466.75,657.85 ZM 414.02 683.00 C424.34,682.96 429.38,683.02 432.27,683.73 C429.04,683.30 422.17,683.07 414.02,683.00 ZM 481.56 527.08 C480.19,524.90 478.97,522.97 478.03,521.50 C475.20,517.07 470.92,510.11 467.97,505.15 C471.32,510.62 475.59,517.50 481.56,527.08 ZM 681.51 525.00 C683.38,521.76 685.34,518.42 686.12,517.15 C686.64,516.30 689.49,511.61 693.48,505.06 C689.43,511.74 686.78,516.16 686.32,517.00 C685.81,517.93 683.90,521.10 681.51,525.00 ZM 427.66 617.95 C424.57,612.91 421.40,607.77 419.07,604.00 C418.10,602.44 416.75,600.24 415.12,597.56 C415.52,598.20 415.85,598.73 416.11,599.14 C418.46,602.86 423.38,610.88 427.66,617.95 ZM 454.13 536.28 C465.92,555.44 472.63,566.29 476.35,572.63 C472.28,565.85 464.87,553.72 454.13,536.28 ZM 480.52 580.91 C480.65,581.51 480.59,581.89 480.44,582.24 C480.31,582.56 480.10,582.85 479.89,583.25 C479.73,583.55 479.13,584.60 478.19,586.20 C479.76,583.35 480.39,581.88 480.52,580.91 ZM 445.04 641.88 C445.01,641.98 445.00,642.06 445.00,642.12 C445.00,643.02 444.70,643.28 444.07,642.86 C444.11,642.86 444.15,642.85 444.19,642.84 C444.51,642.76 444.77,642.40 445.04,641.88 ZM 601.99 600.69 C602.00,600.71 602.00,600.73 602.00,600.74 C602.00,601.00 600.53,603.63 598.68,606.69 C600.54,603.45 601.85,601.07 601.99,600.69 ZM 625.60 563.18 C623.46,566.79 621.55,570.06 620.72,571.54 C620.77,571.43 620.82,571.32 620.88,571.22 C621.44,570.12 623.35,566.89 625.60,563.18 ZM 414.52 750.16 L 403.37 750.00 L 403.35 749.96 L 414.52 750.16 ZM 444.88 466.71 C441.56,461.27 438.29,456.06 436.70,453.71 C438.60,456.50 440.69,459.79 444.88,466.71 ZM 455.10 483.74 C453.10,480.42 450.67,476.36 448.37,472.50 C448.26,472.31 448.14,472.11 448.02,471.92 C449.99,475.19 452.32,479.07 455.10,483.74 ZM 366.00 685.10 C366.00,684.69 368.20,684.33 372.28,684.02 C368.39,684.33 366.00,684.69 366.00,685.10 ZM 667.95 494.30 C666.27,497.28 664.72,499.74 664.03,500.50 C663.88,500.67 663.60,501.04 663.22,501.60 C663.60,501.04 663.88,500.66 664.03,500.50 C664.72,499.74 666.27,497.28 667.95,494.30 Z" fill="rgba(136,98,28,1)"/>
<path d="M 582.36 504.20 C581.03,506.70 580.00,508.78 580.00,509.10 C580.00,509.51 583.00,514.72 586.67,520.67 C590.34,526.63 594.51,533.39 595.92,535.70 C618.09,571.79 619.49,573.88 620.35,572.21 C620.84,571.27 623.72,566.33 626.76,561.23 C632.41,551.77 634.90,549.13 630.66,557.09 C629.37,559.52 627.75,563.23 627.06,565.32 C626.37,567.42 625.17,569.38 624.40,569.68 C623.63,569.97 623.00,571.24 623.00,572.50 C623.00,573.76 622.37,575.03 621.60,575.32 C619.25,576.22 616.00,574.88 616.00,573.01 C616.00,572.04 615.33,570.68 614.50,570.00 C613.67,569.32 613.00,567.80 613.00,566.63 C613.00,563.99 604.52,553.00 602.49,553.00 C601.67,553.00 601.00,553.45 601.00,554.00 C601.00,554.55 599.65,555.00 598.00,555.00 C594.80,555.00 593.97,556.39 596.56,557.39 C598.87,558.27 597.49,559.68 593.60,560.42 C590.97,560.91 589.93,561.75 589.14,564.03 C588.57,565.66 587.68,567.00 587.16,567.00 C585.02,567.00 585.19,570.33 587.51,574.02 C588.88,576.19 590.00,578.31 590.00,578.74 C590.00,579.17 591.58,581.88 593.52,584.76 C598.83,592.64 603.00,599.94 603.00,601.34 C603.00,603.12 600.64,607.98 599.78,607.99 C599.38,608.00 598.33,609.39 597.45,611.09 C596.57,612.79 595.61,613.95 595.32,613.65 C595.02,613.36 596.41,610.44 598.39,607.18 C600.38,603.91 602.00,601.01 602.00,600.74 C602.00,600.46 598.06,593.94 593.25,586.26 C588.44,578.57 578.42,562.29 571.00,550.07 C563.58,537.85 554.26,522.71 550.29,516.43 C545.02,508.07 540.55,500.96 536.65,494.71 C538.92,498.18 540.66,500.47 540.80,500.08 C540.96,499.61 539.33,496.70 537.17,493.63 C535.02,490.55 532.24,485.31 530.99,481.99 C529.75,478.66 528.52,476.15 528.25,476.41 C527.53,477.13 523.72,472.06 521.17,467.00 C519.92,464.52 517.56,460.92 515.92,459.00 L 512.93 455.50 L 515.79 460.50 C517.27,463.07 519.67,467.11 522.54,471.86 C520.38,468.29 518.34,464.90 516.31,461.50 C512.50,455.09 506.58,445.45 501.62,437.52 C507.41,446.47 512.69,454.30 512.86,453.83 C513.06,453.28 512.72,452.32 512.11,451.71 C511.50,451.10 511.00,449.59 511.00,448.36 C511.00,446.65 511.48,446.21 513.01,446.50 C514.31,446.75 515.57,446.05 516.56,444.55 C517.63,442.91 518.71,442.37 520.18,442.76 C521.69,443.15 523.05,442.39 525.13,440.02 C526.71,438.21 528.00,436.11 528.00,435.36 C528.00,434.61 528.69,434.00 529.52,434.00 C531.72,434.00 533.07,438.28 532.02,441.93 C531.54,443.62 531.45,445.01 531.82,445.02 C532.19,445.02 531.89,445.42 531.14,445.89 C530.32,446.41 530.04,447.55 530.42,448.76 C531.00,450.57 531.46,450.67 535.03,449.76 C537.98,449.01 539.39,449.08 540.50,450.00 C542.16,451.38 542.58,458.00 541.00,458.00 C540.45,458.00 540.00,458.72 540.00,459.61 C540.00,460.65 539.45,461.00 538.45,460.62 C537.45,460.23 537.15,460.43 537.60,461.16 C537.99,461.79 537.48,462.91 536.46,463.65 C534.69,464.95 534.70,465.07 536.81,467.04 C539.60,469.64 539.57,470.83 536.71,471.92 C534.40,472.80 531.38,475.74 532.11,476.40 C532.32,476.59 533.48,477.05 534.67,477.42 C536.33,477.93 537.00,477.59 537.51,475.96 C538.12,474.05 538.80,473.87 544.02,474.17 L 549.85 474.50 L 549.30 471.75 C548.60,468.25 550.79,468.09 553.24,471.46 C555.25,474.22 554.66,476.97 552.19,476.38 C551.26,476.16 550.01,476.32 549.40,476.74 C547.88,477.80 546.70,483.00 547.98,483.00 C548.54,483.00 549.00,484.10 549.00,485.44 C549.00,488.39 550.51,489.50 554.50,489.50 C557.05,489.50 557.81,490.15 559.56,493.79 C561.49,497.81 561.71,497.97 563.16,496.29 C564.00,495.31 564.98,493.71 565.32,492.74 C565.66,491.77 567.05,490.48 568.40,489.86 C570.46,488.93 571.31,489.10 573.60,490.90 C577.01,493.58 578.87,492.26 576.59,488.77 C575.06,486.44 575.10,486.28 577.40,485.23 C579.35,484.34 580.09,484.45 581.27,485.82 C582.08,486.74 582.51,488.13 582.24,488.89 C581.96,489.66 582.19,490.00 582.76,489.65 C584.39,488.64 586.28,491.76 585.62,494.37 C585.29,495.69 583.94,497.81 582.62,499.08 C581.30,500.36 580.44,501.99 580.72,502.71 C581.00,503.43 580.67,504.69 579.99,505.51 C579.15,506.52 579.11,507.00 579.86,507.00 C580.31,507.00 581.31,505.85 582.36,504.20 ZM 758.68 397.95 C753.43,406.88 744.76,421.05 730.70,444.00 C724.13,454.73 711.77,474.98 703.24,489.00 C694.71,503.02 687.01,515.69 686.12,517.15 C685.23,518.61 682.79,522.77 680.70,526.40 C678.61,530.03 676.71,533.00 676.47,533.00 C676.23,533.00 676.92,530.73 678.01,527.96 C680.52,521.60 680.52,521.56 677.38,520.13 C675.18,519.13 674.09,519.26 670.52,520.99 C666.10,523.13 662.74,522.85 663.67,520.42 C663.97,519.65 664.68,519.30 665.26,519.66 C666.80,520.61 665.12,517.91 662.61,515.39 C660.51,513.29 660.48,513.29 657.75,515.21 C654.64,517.39 653.91,522.37 656.55,523.38 C657.40,523.71 657.96,524.63 657.80,525.43 C657.63,526.23 658.29,527.48 659.26,528.19 C660.81,529.34 660.87,529.91 659.76,532.91 C658.39,536.61 650.20,545.24 648.85,544.41 C648.40,544.13 648.74,542.68 649.62,541.20 C650.76,539.26 650.80,539.00 649.75,540.25 C647.84,542.53 646.00,542.49 646.00,540.17 C646.00,536.54 644.46,536.94 640.21,541.68 L 635.88 546.50 L 638.78 541.50 C646.99,527.31 662.42,502.25 664.03,500.50 C665.04,499.40 667.85,494.67 670.28,490.00 C675.19,480.54 714.61,414.44 719.40,407.61 C715.88,412.72 688.35,458.45 686.07,463.00 C685.17,464.81 685.98,464.32 688.99,461.25 C691.28,458.91 693.45,457.00 693.83,456.99 C695.06,456.98 698.00,450.88 698.07,448.17 C698.11,446.70 699.02,444.15 700.08,442.50 C701.15,440.85 702.28,438.77 702.60,437.88 C702.91,436.98 704.48,435.28 706.09,434.09 C708.41,432.38 709.42,432.15 711.00,433.00 C712.86,433.99 713.43,433.65 713.11,431.72 C713.04,431.29 714.35,431.65 716.02,432.51 C719.49,434.31 721.40,433.64 720.68,430.89 C720.41,429.85 720.60,428.75 721.09,428.44 C722.35,427.66 722.23,425.00 720.94,425.00 C720.36,425.00 720.14,425.42 720.46,425.93 C720.77,426.44 720.62,427.12 720.11,427.43 C718.79,428.25 716.00,427.01 716.00,425.62 C716.00,424.32 719.58,420.94 720.76,421.12 C723.31,421.52 724.09,420.84 723.50,418.75 C723.05,417.13 723.14,416.89 723.83,417.90 C724.62,419.03 724.89,418.94 725.28,417.40 C725.64,416.01 725.80,416.22 725.88,418.17 C725.95,419.63 725.44,421.03 724.75,421.28 C724.06,421.53 723.86,422.11 724.30,422.58 C725.24,423.58 727.92,422.07 729.41,419.71 C730.19,418.48 730.01,417.29 728.73,415.12 C727.78,413.51 727.00,411.25 727.00,410.10 C727.00,407.74 725.98,407.42 724.20,409.20 C723.46,409.94 723.00,410.00 723.00,409.35 C723.00,407.48 726.86,404.73 728.57,405.39 C729.91,405.90 730.11,405.56 729.61,403.56 C728.70,399.94 730.92,399.22 739.20,400.47 C743.98,401.19 746.48,402.03 746.75,403.02 C746.97,403.83 747.66,405.55 748.29,406.83 C749.24,408.79 748.99,410.00 746.71,414.35 C745.22,417.20 741.98,421.49 739.50,423.89 C737.03,426.29 735.00,428.89 735.00,429.68 C735.00,430.46 734.31,432.43 733.47,434.07 C732.19,436.54 731.62,436.87 730.03,436.02 C728.47,435.18 727.76,435.53 726.00,438.00 C723.95,440.88 723.94,441.00 725.78,441.00 C728.17,441.00 728.12,443.91 725.64,449.36 C724.67,451.48 724.06,453.39 724.27,453.60 C724.60,453.94 733.03,440.31 758.68,397.95 ZM 455.21 483.91 C456.86,486.67 458.21,488.88 458.90,490.00 C460.44,492.48 464.08,498.55 466.99,503.50 C469.91,508.45 474.87,516.55 478.03,521.50 C481.19,526.45 487.55,536.58 492.17,544.00 C496.80,551.42 501.44,558.80 502.49,560.39 L 504.41 563.27 L 502.20 561.90 C500.99,561.14 500.00,560.18 500.00,559.76 C500.00,559.34 499.10,559.00 498.00,559.00 C496.90,559.00 496.00,559.45 496.00,560.00 C496.00,560.55 495.05,561.00 493.89,561.00 C492.43,561.00 491.96,561.46 492.36,562.50 C492.72,563.43 492.36,564.00 491.41,564.00 C490.57,564.00 490.14,564.42 490.46,564.94 C491.19,566.12 486.39,571.00 484.49,571.00 C482.06,571.00 480.91,574.44 482.14,577.98 C483.10,580.72 482.95,581.57 481.13,584.04 C479.96,585.62 479.00,587.32 479.00,587.80 C479.00,588.29 477.90,589.96 476.57,591.52 C475.23,593.08 473.24,596.19 472.16,598.43 C463.42,616.45 461.73,619.36 457.46,623.63 C454.85,626.25 454.09,626.69 455.12,625.00 C459.96,617.08 478.90,585.14 479.89,583.25 C480.10,582.85 480.31,582.56 480.44,582.24 C481.30,580.19 479.11,576.87 454.13,536.28 C449.66,529.01 446.00,522.66 446.00,522.17 C446.00,521.67 445.01,520.01 443.80,518.48 C443.55,518.15 443.17,517.62 442.71,516.95 C442.85,517.11 442.94,517.16 442.99,517.13 C443.13,517.06 442.99,516.45 442.98,515.92 C442.97,515.14 441.51,512.29 439.73,509.59 C437.95,506.90 435.38,502.77 434.00,500.44 C432.62,498.10 430.06,494.12 428.29,491.60 C424.15,485.69 423.58,481.63 426.83,481.17 C428.20,480.98 429.78,481.59 430.66,482.67 C431.48,483.68 431.86,483.94 431.52,483.25 C431.17,482.56 431.36,482.00 431.94,482.00 C432.52,482.00 433.01,480.54 433.02,478.75 C433.03,476.60 433.88,474.70 435.52,473.15 C437.21,471.54 438.00,469.71 438.00,467.40 C438.00,465.44 438.50,464.00 439.19,464.00 C440.73,464.00 445.00,468.02 445.00,469.47 C445.00,470.09 447.07,473.72 449.59,477.55 C452.11,481.37 455.25,486.52 456.56,489.00 C457.87,491.48 460.32,495.08 462.01,497.00 C462.99,498.12 463.73,499.00 463.84,498.93 C464.04,498.79 462.02,495.34 455.21,483.91 ZM 417.64 654.70 C418.08,654.25 417.96,653.58 417.37,653.20 C417.30,653.15 417.21,653.06 417.09,652.92 C417.33,652.53 417.55,650.58 417.60,648.25 C417.72,641.95 419.27,636.73 421.74,634.26 C423.04,632.96 423.64,631.23 423.45,629.37 L 423.14 626.50 L 425.04 628.83 C427.56,631.91 429.69,630.70 427.53,627.41 C425.52,624.34 426.30,624.36 430.41,627.50 C432.21,628.88 433.97,630.00 434.32,630.00 C434.67,630.00 431.78,624.86 427.50,617.68 C430.11,621.93 432.68,626.14 434.67,629.42 C441.76,641.08 445.00,645.07 445.00,642.12 C445.00,641.54 446.31,639.00 447.92,636.47 L 450.84 631.86 L 450.41 637.68 C449.95,643.92 449.82,645.64 450.21,647.23 C450.36,647.85 450.60,648.46 450.92,649.31 C451.51,650.86 452.41,651.87 452.91,651.56 C453.41,651.25 454.87,651.41 456.16,651.91 C458.29,652.74 458.12,652.88 454.28,653.53 C449.72,654.30 447.86,656.92 450.03,659.54 C451.63,661.47 450.61,663.76 447.53,665.17 C444.61,666.50 444.03,670.95 446.50,673.00 C448.07,674.30 448.54,676.08 447.25,675.88 C444.59,675.46 444.00,676.32 444.00,680.59 C444.00,684.32 443.63,685.28 442.03,685.70 C440.95,685.98 439.78,687.11 439.44,688.19 C438.83,690.10 438.75,690.08 437.26,687.84 C435.25,684.80 434.43,683.63 428.43,683.21 C432.50,683.11 435.00,682.95 435.00,682.75 C435.00,682.34 434.66,681.99 434.25,681.97 C410.33,681.01 410.16,680.98 413.81,678.42 C415.01,677.58 416.00,675.82 416.00,674.53 C416.00,671.04 416.99,669.06 418.46,669.62 C419.24,669.92 419.93,669.12 420.23,667.58 C420.70,665.14 419.31,662.25 416.10,659.00 C414.80,657.67 414.88,657.46 416.81,657.18 C418.02,657.00 419.00,656.55 419.00,656.18 C419.00,655.81 408.76,655.55 396.25,655.61 C382.79,655.67 373.46,655.55 367.80,655.22 C372.80,655.43 381.06,655.50 394.17,655.50 C406.63,655.50 417.19,655.14 417.64,654.70 ZM 391.40 776.02 C390.84,775.80 389.58,774.35 387.97,772.16 C388.50,772.68 388.97,773.00 389.26,772.99 C389.94,772.99 392.29,770.26 394.47,766.93 C396.66,763.60 399.02,760.40 399.72,759.82 C400.42,759.23 401.00,757.52 401.00,756.00 C401.00,752.87 402.40,751.39 406.00,750.73 L 408.50 750.27 L 405.94 750.14 C405.65,750.12 405.38,750.08 405.12,750.03 L 417.44 750.21 C428.66,750.37 429.62,750.48 422.18,750.75 C414.02,751.04 412.91,751.29 413.22,752.79 C413.42,753.76 414.31,754.37 415.27,754.21 C419.91,753.42 423.48,760.16 419.25,761.70 C418.29,762.05 416.43,763.38 415.13,764.66 C413.08,766.65 412.98,767.05 414.38,767.59 C415.27,767.93 416.66,767.96 417.47,767.65 C418.28,767.34 419.64,767.78 420.49,768.63 C421.89,770.03 421.81,770.36 419.67,772.05 C417.93,773.42 415.21,774.00 409.40,774.25 C405.05,774.44 408.79,774.69 417.69,774.80 C427.18,774.92 434.14,775.41 434.50,776.00 C435.27,777.24 394.47,777.27 391.40,776.02 ZM 508.20 438.68 C509.07,441.10 509.10,442.30 508.30,443.10 C507.50,443.90 507.00,443.56 506.46,441.85 C506.06,440.56 504.54,438.14 503.09,436.47 C498.47,431.17 490.83,417.23 491.20,414.79 C491.54,412.58 491.66,412.62 494.89,415.98 C497.12,418.30 499.89,419.88 503.21,420.73 C505.95,421.44 509.25,422.84 510.53,423.85 L 512.87 425.69 L 510.95 428.84 C509.89,430.58 508.57,432.00 508.01,432.00 C506.66,432.00 506.73,434.62 508.20,438.68 ZM 482.13 565.46 C483.15,565.13 484.32,565.08 484.74,565.34 C485.16,565.60 485.57,564.72 485.65,563.38 C485.81,560.67 487.81,557.76 489.01,558.51 C489.44,558.77 490.05,558.32 490.36,557.49 C490.68,556.67 491.63,556.00 492.47,556.00 C494.76,556.00 494.39,550.77 491.87,547.56 L 489.73 544.85 L 486.92 547.92 C485.38,549.62 483.20,551.00 482.08,551.00 C480.32,551.00 480.18,551.34 481.01,553.54 C481.80,555.60 481.65,556.17 480.24,556.61 C475.27,558.15 473.50,559.92 473.67,563.19 C473.78,565.24 474.70,567.15 476.14,568.32 C478.40,570.14 478.46,570.14 479.36,568.11 C479.87,566.97 481.12,565.78 482.13,565.46 ZM 581.89 557.37 C580.35,555.52 576.00,546.95 576.00,545.77 C576.00,545.28 576.45,545.16 577.00,545.50 C577.55,545.84 578.00,545.64 578.00,545.06 C578.00,543.68 581.73,543.68 582.19,545.06 C582.71,546.62 586.00,545.04 586.00,543.22 C586.00,542.36 586.67,540.92 587.48,540.02 C588.84,538.52 588.51,538.37 583.73,538.29 C580.85,538.24 577.89,538.70 577.15,539.30 C576.14,540.13 575.58,540.01 574.90,538.79 C573.98,537.14 572.92,537.08 569.65,538.49 C568.22,539.11 567.94,539.96 568.41,542.32 C568.75,543.99 569.68,546.06 570.48,546.93 C574.47,551.23 577.68,554.98 579.38,557.35 C580.41,558.79 581.67,559.71 582.17,559.39 C582.71,559.06 582.58,558.20 581.89,557.37 ZM 657.48 560.50 C658.90,556.65 660.55,552.52 661.16,551.32 C661.77,550.12 661.99,548.41 661.65,547.53 C661.28,546.58 661.64,545.69 662.53,545.35 C663.36,545.03 663.97,544.26 663.90,543.64 C663.56,540.80 664.19,540.00 666.78,540.00 C668.31,540.00 670.67,539.22 672.03,538.28 L 674.50 536.55 L 672.67 539.37 C671.66,540.92 667.67,547.43 663.80,553.84 C654.99,568.44 654.28,569.18 657.48,560.50 ZM 478.37 388.10 C479.89,395.72 475.47,393.48 470.67,384.20 C466.51,376.15 467.05,373.40 471.80,378.43 C473.56,380.30 475.00,382.27 475.00,382.81 C475.00,383.35 475.61,384.02 476.36,384.31 C477.10,384.59 478.01,386.30 478.37,388.10 ZM 458.49 672.36 C456.10,669.19 455.64,665.93 457.69,666.71 C459.40,667.37 461.92,664.26 461.97,661.45 C461.99,660.33 463.80,657.65 466.00,655.50 C468.20,653.35 470.00,651.07 470.00,650.42 C470.00,649.77 470.75,648.63 471.66,647.87 C473.17,646.63 473.22,646.71 472.13,648.75 C471.47,649.98 468.43,655.11 465.37,660.13 C460.92,667.43 459.92,669.84 460.38,672.13 C461.08,675.65 460.97,675.66 458.49,672.36 ZM 423.46 613.91 C424.83,616.58 424.80,617.02 423.12,619.10 C421.32,621.33 421.25,621.33 420.23,619.42 C419.65,618.34 418.85,615.71 418.45,613.57 C417.80,610.14 417.92,609.76 419.44,610.34 C420.39,610.70 421.34,611.00 421.56,611.00 C421.77,611.00 422.63,612.31 423.46,613.91 ZM 474.47 642.75 C475.22,640.96 476.55,638.15 477.41,636.50 C478.28,634.85 478.99,632.99 478.99,632.36 C479.00,630.84 484.90,624.56 485.63,625.29 C485.94,625.60 484.88,627.80 483.27,630.18 C481.66,632.56 478.88,637.09 477.10,640.25 C473.49,646.65 472.39,647.69 474.47,642.75 ZM 495.00 608.03 C495.00,606.23 499.31,598.79 502.16,595.66 C503.72,593.95 505.00,591.81 505.00,590.90 C505.00,589.99 505.67,588.68 506.50,588.00 C509.38,585.61 508.02,588.88 501.93,598.95 C496.04,608.70 495.00,610.07 495.00,608.03 ZM 478.51 547.25 C478.34,545.74 478.59,544.03 479.06,543.45 C480.38,541.82 478.97,537.86 477.18,538.20 C474.99,538.62 474.82,547.78 476.97,549.04 C477.81,549.54 478.57,549.95 478.66,549.97 C478.75,549.99 478.68,548.76 478.51,547.25 ZM 470.62 551.55 C470.52,548.80 470.02,547.97 468.13,547.50 C465.17,546.75 465.13,546.81 465.72,550.70 C466.15,553.49 467.00,554.30 470.12,554.88 C470.46,554.95 470.68,553.45 470.62,551.55 ZM 638.02 594.89 C638.01,594.00 639.08,591.69 640.40,589.74 C641.72,587.80 643.10,585.26 643.47,584.10 C643.83,582.94 645.07,581.50 646.22,580.88 C648.23,579.80 648.23,579.90 645.96,583.63 C639.38,594.46 638.04,596.37 638.02,594.89 ZM 507.55 572.44 C506.63,571.03 506.02,569.24 506.19,568.45 C506.37,567.64 507.48,568.73 508.78,571.01 C511.27,575.38 510.26,576.56 507.55,572.44 ZM 517.42 422.36 C516.76,424.06 514.00,424.68 514.00,423.12 C514.00,421.96 516.91,419.58 517.55,420.21 C517.82,420.49 517.76,421.45 517.42,422.36 ZM 438.01 490.97 C437.09,492.70 437.23,493.00 438.96,493.00 C440.08,493.00 441.00,492.35 441.00,491.56 C441.00,489.17 439.17,488.81 438.01,490.97 ZM 754.75 361.80 C760.76,372.16 765.29,380.02 765.87,381.15 C766.56,382.49 766.72,383.57 763.12,390.19 C764.40,387.65 764.68,386.42 764.15,386.09 C763.19,385.50 763.27,385.02 764.48,384.02 C765.44,383.22 765.80,381.96 765.42,380.75 C765.22,380.12 760.81,372.33 754.75,361.80 ZM 440.00 641.88 C440.00,640.08 439.77,639.95 438.45,641.04 C437.22,642.07 437.17,642.49 438.20,643.15 C439.99,644.28 440.00,644.27 440.00,641.88 ZM 567.15 494.56 C566.94,495.61 567.31,496.06 568.15,495.78 C569.71,495.26 569.98,493.03 568.50,492.95 C567.95,492.92 567.34,493.64 567.15,494.56 ZM 502.00 413.06 C502.00,413.58 501.55,414.00 501.00,414.00 C500.45,414.00 500.00,413.30 500.00,412.44 C500.00,411.58 500.45,411.16 501.00,411.50 C501.55,411.84 502.00,412.54 502.00,413.06 ZM 455.00 663.00 C455.00,662.45 455.45,662.00 456.00,662.00 C456.55,662.00 457.00,662.45 457.00,663.00 C457.00,663.55 456.55,664.00 456.00,664.00 C455.45,664.00 455.00,663.55 455.00,663.00 ZM 579.18 547.78 C578.47,547.07 578.00,547.01 578.00,547.63 C578.00,548.97 579.18,550.15 579.85,549.48 C580.13,549.20 579.83,548.43 579.18,547.78 ZM 366.66 517.17 C370.87,523.95 382.64,543.45 392.81,560.50 C400.75,573.80 409.69,588.64 415.26,597.79 C411.74,592.11 402.15,576.18 392.80,560.50 C382.63,543.45 370.87,523.95 366.66,517.17 ZM 381.18 683.55 C371.47,683.92 366.00,684.46 366.00,685.10 C366.00,684.40 371.67,683.86 381.18,683.55 ZM 392.64 613.55 C393.75,615.12 394.99,617.00 396.22,619.00 C397.03,620.33 397.83,621.63 398.58,622.86 C396.00,618.69 394.08,615.67 392.64,613.55 ZM 601.29 472.43 C594.56,483.66 588.39,493.87 587.03,496.00 C586.74,496.46 586.40,497.01 586.04,497.62 C586.46,496.88 586.80,496.30 587.00,496.00 C588.10,494.32 594.37,483.96 601.29,472.43 ZM 361.00 654.02 C361.00,654.01 361.00,653.99 361.00,653.98 C361.00,653.55 364.74,646.97 369.32,639.35 C364.82,646.84 361.13,653.35 361.00,654.02 ZM 485.00 410.12 C484.65,409.57 484.29,409.03 483.93,408.50 C483.63,408.05 483.05,407.15 482.26,405.89 C482.75,406.67 483.10,407.21 483.29,407.48 C483.80,408.20 484.41,409.14 485.00,410.12 ZM 401.85 628.21 C402.41,629.11 402.79,629.75 402.95,630.00 C403.20,630.41 404.15,632.00 405.46,634.23 C404.14,632.01 403.19,630.42 402.94,630.00 C402.57,629.39 402.20,628.79 401.85,628.21 ZM 436.67 507.57 C436.27,506.92 435.86,506.25 435.46,505.59 C435.32,505.36 435.16,505.11 435.00,504.84 C435.60,505.83 436.16,506.73 436.67,507.57 ZM 488.04 415.64 C487.90,415.39 487.77,415.16 487.67,414.97 C487.78,415.18 487.91,415.41 488.04,415.64 Z" fill="rgba(152,115,38,1)"/>
<path d="M 595.52 479.50 L 594.84 482.50 L 596.76 479.50 C598.75,476.40 603.98,467.83 610.14,457.64 C600.66,473.53 588.57,493.61 587.00,496.00 C586.46,496.83 584.88,499.64 583.49,502.25 C582.10,504.86 580.47,507.00 579.86,507.00 C579.11,507.00 579.15,506.52 579.99,505.51 C580.67,504.69 581.00,503.43 580.72,502.71 C580.44,501.99 581.30,500.36 582.62,499.08 C583.94,497.81 585.29,495.69 585.62,494.37 C586.28,491.76 584.39,488.64 582.76,489.65 C582.19,490.00 581.96,489.66 582.24,488.89 C582.51,488.13 582.08,486.74 581.27,485.82 C580.09,484.45 579.35,484.34 577.40,485.23 C575.10,486.28 575.06,486.44 576.59,488.77 C578.87,492.26 577.01,493.58 573.60,490.90 C571.31,489.10 570.46,488.93 568.40,489.86 C567.05,490.48 565.66,491.77 565.32,492.74 C564.98,493.71 564.00,495.31 563.16,496.29 C561.71,497.97 561.49,497.81 559.56,493.79 C557.81,490.15 557.05,489.50 554.50,489.50 C550.51,489.50 549.00,488.39 549.00,485.44 C549.00,484.10 548.54,483.00 547.98,483.00 C546.70,483.00 547.88,477.80 549.40,476.74 C550.01,476.32 551.26,476.16 552.19,476.38 C554.66,476.97 555.25,474.22 553.24,471.46 C550.79,468.09 548.60,468.25 549.30,471.75 L 549.85 474.50 L 544.02 474.17 C538.80,473.87 538.12,474.05 537.51,475.96 C537.00,477.59 536.33,477.93 534.67,477.42 C533.48,477.05 532.32,476.59 532.11,476.40 C531.38,475.74 534.40,472.80 536.71,471.92 C539.57,470.83 539.60,469.64 536.81,467.04 C534.70,465.07 534.69,464.95 536.46,463.65 C537.48,462.91 537.99,461.79 537.60,461.16 C537.15,460.43 537.45,460.23 538.45,460.62 C539.45,461.00 540.00,460.65 540.00,459.61 C540.00,458.72 540.45,458.00 541.00,458.00 C542.58,458.00 542.16,451.38 540.50,450.00 C539.39,449.08 537.98,449.01 535.03,449.76 C531.46,450.67 531.00,450.57 530.42,448.76 C530.04,447.55 530.32,446.41 531.14,445.89 C531.89,445.42 532.19,445.02 531.82,445.02 C531.45,445.01 531.54,443.62 532.02,441.93 C533.07,438.28 531.72,434.00 529.52,434.00 C528.69,434.00 528.00,434.61 528.00,435.36 C528.00,436.11 526.71,438.21 525.13,440.02 C523.05,442.39 521.69,443.15 520.18,442.76 C518.71,442.37 517.63,442.91 516.56,444.55 C515.57,446.05 514.31,446.75 513.01,446.50 C511.48,446.21 511.00,446.65 511.00,448.36 C511.00,449.59 511.50,451.10 512.11,451.71 C512.72,452.32 513.06,453.28 512.86,453.83 C512.51,454.80 490.09,420.01 486.95,413.61 C486.09,411.87 484.45,409.11 483.29,407.48 C482.14,405.84 474.55,393.48 466.43,380.00 C458.32,366.52 447.96,349.42 443.40,342.00 C442.48,340.49 441.57,339.00 440.71,337.58 C440.96,337.96 441.17,338.27 441.34,338.49 C442.70,340.31 442.76,340.15 442.07,336.41 C441.67,334.17 441.03,331.87 440.67,331.28 C440.31,330.69 440.65,329.96 441.43,329.67 C442.21,329.37 442.99,328.09 443.17,326.82 C443.61,323.76 446.96,323.12 447.70,325.95 C448.42,328.70 450.40,328.05 450.85,324.92 C451.31,321.77 452.63,321.03 456.08,322.02 C458.10,322.60 459.23,322.42 460.09,321.39 C461.12,320.15 461.62,320.17 463.76,321.58 C465.13,322.48 466.03,322.82 465.76,322.35 C462.01,315.77 458.59,309.87 455.74,305.05 C460.30,312.61 467.28,324.21 474.66,336.50 C508.34,392.60 509.21,394.00 510.13,394.00 C510.28,394.00 510.43,393.96 510.55,393.90 C510.18,394.69 510.00,395.20 510.00,395.45 C510.00,395.75 510.88,396.00 511.95,396.00 C513.02,396.00 514.26,396.57 514.70,397.26 C515.14,397.96 517.70,400.44 520.40,402.77 C525.92,407.55 528.32,411.42 527.45,414.15 C526.49,417.17 528.28,416.24 530.79,412.47 C528.09,416.69 526.00,420.33 526.00,420.85 C526.00,421.42 533.31,434.05 542.25,448.93 C551.19,463.80 559.14,477.32 559.93,478.98 C560.72,480.64 561.84,481.99 562.43,481.98 C562.99,481.97 568.67,473.18 575.32,462.10 C572.90,466.21 571.31,468.99 571.10,469.50 C570.89,470.05 571.60,469.71 572.68,468.75 C575.19,466.53 575.81,466.55 584.39,469.17 C588.30,470.36 592.77,471.22 594.32,471.08 C597.37,470.81 597.42,471.19 595.52,479.50 ZM 729.54 374.94 C729.90,374.35 729.53,373.11 728.72,372.19 C727.91,371.26 720.41,359.02 712.05,345.00 C703.69,330.98 695.42,317.12 693.69,314.21 C693.33,313.61 692.94,313.02 692.55,312.46 C692.94,313.02 693.33,313.61 693.69,314.21 C720.55,359.19 724.95,366.69 725.95,366.26 C726.21,366.15 726.25,365.52 726.38,364.87 C726.81,362.69 727.83,361.51 729.99,360.70 C731.65,360.07 733.00,359.21 733.00,358.78 C733.00,358.35 732.98,357.76 732.96,357.46 C732.91,356.58 735.78,354.00 736.82,354.00 C737.35,354.00 738.06,353.30 738.39,352.44 C738.72,351.58 739.41,351.14 739.93,351.46 C740.45,351.78 741.31,351.26 741.85,350.30 C742.71,348.77 743.12,348.72 745.39,349.94 C746.81,350.70 748.20,352.04 748.48,352.91 C748.76,353.78 750.11,355.85 751.48,357.50 C753.90,360.42 738.63,333.62 722.99,307.50 C722.15,306.10 721.30,304.66 720.45,303.23 C729.92,318.74 764.85,378.95 765.42,380.75 C765.80,381.96 765.44,383.22 764.48,384.02 C763.27,385.02 763.19,385.50 764.15,386.09 C765.05,386.65 763.59,389.84 758.85,397.68 C733.07,440.25 724.61,453.94 724.27,453.60 C724.06,453.39 724.67,451.48 725.64,449.36 C728.12,443.91 728.17,441.00 725.78,441.00 C723.94,441.00 723.95,440.88 726.00,438.00 C727.76,435.53 728.47,435.18 730.03,436.02 C731.62,436.87 732.19,436.54 733.47,434.07 C734.31,432.43 735.00,430.46 735.00,429.68 C735.00,428.89 737.03,426.29 739.50,423.89 C741.98,421.49 745.22,417.20 746.71,414.35 C748.99,410.00 749.24,408.79 748.29,406.83 C747.66,405.55 746.97,403.83 746.75,403.02 C746.48,402.03 743.98,401.19 739.20,400.47 C730.92,399.22 728.70,399.94 729.61,403.56 C730.11,405.56 729.91,405.90 728.57,405.39 C726.86,404.73 723.00,407.48 723.00,409.35 C723.00,410.00 723.46,409.94 724.20,409.20 C725.98,407.42 727.00,407.74 727.00,410.10 C727.00,411.25 727.78,413.51 728.73,415.12 C730.01,417.29 730.19,418.48 729.41,419.71 C727.92,422.07 725.24,423.58 724.30,422.58 C723.86,422.11 724.06,421.53 724.75,421.28 C725.44,421.03 725.95,419.63 725.88,418.17 C725.80,416.22 725.64,416.01 725.28,417.40 C724.89,418.94 724.62,419.03 723.83,417.90 C723.14,416.89 723.05,417.13 723.50,418.75 C724.09,420.84 723.31,421.52 720.76,421.12 C719.58,420.94 716.00,424.32 716.00,425.62 C716.00,427.01 718.79,428.25 720.11,427.43 C720.62,427.12 720.77,426.44 720.46,425.93 C720.14,425.42 720.36,425.00 720.94,425.00 C722.23,425.00 722.35,427.66 721.09,428.44 C720.60,428.75 720.41,429.85 720.68,430.89 C721.40,433.64 719.49,434.31 716.02,432.51 C714.35,431.65 713.04,431.29 713.11,431.72 C713.43,433.65 712.86,433.99 711.00,433.00 C709.42,432.15 708.41,432.38 706.09,434.09 C704.48,435.28 702.91,436.98 702.60,437.88 C702.28,438.77 701.15,440.85 700.08,442.50 C699.02,444.15 698.11,446.70 698.07,448.17 C698.00,450.88 695.06,456.98 693.83,456.99 C693.45,457.00 691.28,458.91 688.99,461.25 C685.98,464.32 685.17,464.81 686.07,463.00 C688.41,458.34 717.21,410.52 719.61,407.32 C720.92,405.57 722.00,403.65 722.00,403.07 C722.00,402.33 709.83,402.00 682.55,402.00 L 673.23 402.00 C689.79,402.00 703.15,401.82 702.92,401.59 C702.69,401.37 695.30,400.86 686.50,400.47 C677.70,400.08 670.16,399.56 669.75,399.32 C669.34,399.08 668.04,398.70 666.87,398.47 C663.65,397.86 663.32,397.00 666.29,397.00 C667.74,397.00 669.49,396.39 670.18,395.65 C670.87,394.91 672.24,394.51 673.23,394.77 C675.66,395.41 678.25,393.06 677.65,390.76 C677.29,389.40 677.62,388.98 678.83,389.24 C679.75,389.43 681.29,388.71 682.25,387.64 C683.71,386.02 684.42,385.87 686.41,386.78 C688.56,387.76 688.93,387.57 690.00,385.01 C691.48,381.43 693.46,380.61 695.56,382.70 C696.90,384.04 697.33,384.09 698.02,382.96 C699.12,381.18 698.34,380.00 696.06,380.00 C695.06,380.00 693.73,379.38 693.10,378.62 C691.70,376.93 693.36,376.11 698.83,375.77 C700.85,375.65 688.79,375.31 672.03,375.02 L 641.55 374.50 L 684.53 375.02 C708.16,375.30 727.81,375.64 728.19,375.77 C728.57,375.89 729.18,375.52 729.54,374.94 ZM 427.64 438.59 C428.00,439.22 428.30,439.77 428.55,440.21 C430.87,444.45 434.54,450.53 436.70,453.71 C438.86,456.89 444.12,465.35 448.39,472.50 C460.74,493.17 464.09,498.76 463.84,498.93 C463.73,499.00 462.99,498.12 462.01,497.00 C460.32,495.08 457.87,491.48 456.56,489.00 C455.25,486.52 452.11,481.37 449.59,477.55 C447.07,473.72 445.00,470.09 445.00,469.47 C445.00,468.02 440.73,464.00 439.19,464.00 C438.50,464.00 438.00,465.44 438.00,467.40 C438.00,469.71 437.21,471.54 435.52,473.15 C433.88,474.70 433.03,476.60 433.02,478.75 C433.01,480.54 432.52,482.00 431.94,482.00 C431.36,482.00 431.17,482.56 431.52,483.25 C431.86,483.94 431.48,483.68 430.66,482.67 C429.78,481.59 428.20,480.98 426.83,481.17 C423.58,481.63 424.15,485.69 428.29,491.60 C430.06,494.12 432.62,498.10 434.00,500.44 C435.38,502.77 437.95,506.90 439.73,509.59 C441.51,512.29 442.97,515.14 442.98,515.92 C442.99,516.45 443.13,517.06 442.99,517.13 C442.53,517.36 438.95,511.36 416.71,474.78 C409.78,463.38 401.38,449.72 398.05,444.42 C397.99,444.33 397.93,444.23 397.87,444.13 C400.26,447.91 403.30,452.78 406.53,458.00 C413.49,469.27 418.87,477.38 418.48,476.00 C417.18,471.41 413.76,464.00 412.96,464.00 C412.09,464.00 410.64,458.52 411.17,457.27 C411.35,456.85 411.84,456.61 412.25,456.75 C412.66,456.89 413.00,456.20 413.00,455.22 C413.00,454.23 414.39,452.61 416.08,451.61 C418.99,449.89 419.13,449.54 418.57,445.15 C418.25,442.59 418.33,438.27 418.75,435.55 L 419.51 430.60 L 422.26 433.35 C423.76,434.86 425.00,436.47 425.00,436.94 C425.00,437.40 425.72,438.06 426.60,438.40 C427.05,438.57 427.48,438.86 427.61,438.76 C427.64,438.74 427.65,438.68 427.64,438.59 ZM 416.66 600.02 C425.90,614.69 434.92,630.00 434.32,630.00 C433.97,630.00 432.21,628.88 430.41,627.50 C426.30,624.36 425.52,624.34 427.53,627.41 C429.69,630.70 427.56,631.91 425.04,628.83 L 423.14 626.50 L 423.45 629.37 C423.64,631.23 423.04,632.96 421.74,634.26 C419.27,636.73 417.72,641.95 417.60,648.25 C417.54,650.86 417.27,653.00 417.00,652.99 C416.73,652.99 413.66,648.15 410.18,642.24 C406.71,636.33 403.45,630.83 402.95,630.00 C402.44,629.17 399.41,624.23 396.22,619.00 C393.03,613.80 389.76,609.42 388.93,609.22 C388.93,609.23 388.94,609.23 388.94,609.23 C389.77,609.39 392.71,613.19 395.47,617.68 C401.73,627.83 401.95,628.04 401.31,623.31 C400.84,619.80 401.35,618.70 406.90,611.22 C410.25,606.69 413.00,602.30 413.00,601.46 C413.00,600.26 413.41,600.15 414.93,600.96 C417.35,602.26 417.95,602.31 416.66,600.02 ZM 385.70 769.25 C384.66,767.57 382.82,764.54 380.44,760.61 C382.78,764.31 384.60,766.70 384.76,766.22 C384.96,765.63 383.33,762.30 381.15,758.82 C376.36,751.20 375.30,746.00 378.52,746.00 C379.36,746.00 380.56,744.88 381.18,743.50 C381.81,742.12 382.96,741.00 383.73,741.00 C385.36,741.00 386.80,739.64 389.30,735.73 C390.82,733.35 391.36,733.12 393.17,734.09 C394.75,734.94 394.88,734.40 390.44,726.72 C396.33,736.75 400.71,744.42 401.74,746.59 C402.93,749.07 404.07,750.04 405.94,750.14 L 408.50 750.27 L 406.00 750.73 C402.40,751.39 401.00,752.87 401.00,756.00 C401.00,757.52 400.42,759.23 399.72,759.82 C399.02,760.40 396.66,763.60 394.47,766.93 C392.29,770.26 389.94,772.99 389.26,772.99 C388.58,773.00 386.98,771.31 385.70,769.25 ZM 377.02 655.53 C382.12,655.62 388.50,655.64 396.25,655.61 C408.76,655.55 419.00,655.81 419.00,656.18 C419.00,656.55 418.02,657.00 416.81,657.18 C414.88,657.46 414.80,657.67 416.10,659.00 C419.31,662.25 420.70,665.14 420.23,667.58 C419.93,669.12 419.24,669.92 418.46,669.62 C416.99,669.06 416.00,671.04 416.00,674.53 C416.00,675.82 415.01,677.58 413.81,678.42 C410.16,680.98 410.33,681.01 434.25,681.97 C434.66,681.99 435.00,682.34 435.00,682.75 C435.00,683.16 424.09,683.41 410.75,683.30 C384.95,683.09 366.64,683.81 366.02,685.04 C366.01,685.00 366.00,684.97 366.00,684.96 C366.00,684.09 369.07,683.85 385.50,683.41 C401.75,682.98 402.69,682.88 399.30,681.89 C395.52,680.80 394.42,679.41 395.91,677.61 C396.51,676.89 397.10,675.05 397.23,673.53 C397.35,672.01 398.14,670.51 398.98,670.20 C402.78,668.79 405.72,661.58 403.44,659.29 C402.64,658.49 402.24,657.43 402.55,656.92 C402.88,656.39 398.99,655.96 393.31,655.90 C387.93,655.84 380.61,655.67 377.02,655.53 ZM 508.20 438.68 C506.73,434.62 506.66,432.00 508.01,432.00 C508.57,432.00 509.89,430.58 510.95,428.84 L 512.87 425.69 L 510.53 423.85 C509.25,422.84 505.95,421.44 503.21,420.73 C499.89,419.88 497.12,418.30 494.89,415.98 C491.66,412.62 491.54,412.58 491.20,414.79 C490.83,417.23 498.47,431.17 503.09,436.47 C504.54,438.14 506.06,440.56 506.46,441.85 C507.00,443.56 507.50,443.90 508.30,443.10 C509.10,442.30 509.07,441.10 508.20,438.68 ZM 478.37 388.10 C478.01,386.30 477.10,384.59 476.36,384.31 C475.61,384.02 475.00,383.35 475.00,382.81 C475.00,382.27 473.56,380.30 471.80,378.43 C467.05,373.40 466.51,376.15 470.67,384.20 C475.47,393.48 479.89,395.72 478.37,388.10 ZM 535.06 492.22 C527.46,480.05 519.18,466.41 515.79,460.50 L 512.93 455.50 L 515.92 459.00 C517.56,460.92 519.92,464.52 521.17,467.00 C523.72,472.06 527.53,477.13 528.25,476.41 C528.52,476.15 529.75,478.66 530.99,481.99 C532.24,485.31 535.02,490.55 537.17,493.63 C539.33,496.70 540.96,499.61 540.80,500.08 C540.63,500.55 538.05,497.02 535.06,492.22 ZM 423.46 613.91 C422.63,612.31 421.77,611.00 421.56,611.00 C421.34,611.00 420.39,610.70 419.44,610.34 C417.92,609.76 417.80,610.14 418.45,613.57 C418.85,615.71 419.65,618.34 420.23,619.42 C421.25,621.33 421.32,621.33 423.12,619.10 C424.80,617.02 424.83,616.58 423.46,613.91 ZM 517.42 422.36 C517.76,421.45 517.82,420.49 517.55,420.21 C516.91,419.58 514.00,421.96 514.00,423.12 C514.00,424.68 516.76,424.06 517.42,422.36 ZM 438.01 490.97 C439.17,488.81 441.00,489.17 441.00,491.56 C441.00,492.35 440.08,493.00 438.96,493.00 C437.23,493.00 437.09,492.70 438.01,490.97 ZM 561.00 483.07 C561.00,485.01 564.47,483.53 564.72,481.49 C564.85,480.39 564.71,480.06 564.40,480.75 C564.09,481.44 563.20,482.00 562.42,482.00 C561.64,482.00 561.00,482.48 561.00,483.07 ZM 567.15 494.56 C567.34,493.64 567.95,492.92 568.50,492.95 C569.98,493.03 569.71,495.26 568.15,495.78 C567.31,496.06 566.94,495.61 567.15,494.56 ZM 524.45 421.91 C525.48,423.59 526.00,423.21 526.00,420.80 C526.00,419.18 525.70,418.90 524.89,419.71 C524.28,420.32 524.08,421.31 524.45,421.91 ZM 502.00 413.06 C502.00,412.54 501.55,411.84 501.00,411.50 C500.45,411.16 500.00,411.58 500.00,412.44 C500.00,413.30 500.45,414.00 501.00,414.00 C501.55,414.00 502.00,413.58 502.00,413.06 ZM 372.36 747.20 C358.18,723.60 338.13,690.00 334.99,684.47 C337.12,688.18 356.84,721.27 372.36,747.20 ZM 445.81 288.90 C446.95,290.75 448.01,292.45 449.52,294.86 C448.45,293.20 447.73,292.19 447.44,291.95 C446.65,291.29 446.00,290.24 446.00,289.61 C446.00,289.46 445.93,289.21 445.81,288.90 ZM 642.34 403.36 L 639.35 408.75 C637.49,412.10 634.40,417.31 632.13,420.95 C635.06,416.01 637.40,412.03 638.70,409.75 L 642.34 403.36 ZM 366.66 517.17 C370.87,523.95 382.63,543.45 392.80,560.50 C401.37,574.88 410.15,589.46 414.26,596.16 C411.70,592.09 402.38,576.63 392.78,560.50 C382.62,543.45 370.87,523.95 366.66,517.17 ZM 533.97 407.57 C540.50,397.37 549.64,382.51 560.17,365.00 C571.76,345.72 577.28,336.72 579.86,333.10 C577.35,336.61 572.16,345.04 561.98,362.00 C549.23,383.24 540.95,396.72 533.97,407.57 ZM 361.01 654.04 C361.16,654.54 363.09,654.91 367.00,655.17 C366.54,655.15 366.12,655.14 365.75,655.13 C363.14,655.06 361.00,654.60 361.00,654.10 C361.00,654.09 361.00,654.07 361.01,654.04 ZM 373.23 697.86 C373.69,698.62 374.16,699.40 374.64,700.20 C378.20,706.09 381.73,712.00 385.02,717.54 C382.91,714.01 380.37,709.77 377.32,704.71 C375.88,702.32 374.50,700.00 373.23,697.86 ZM 398.04 388.74 C398.52,390.09 404.23,399.85 411.16,411.11 C412.77,413.72 414.40,416.39 415.99,419.02 C414.55,416.66 412.94,414.04 411.14,411.11 C404.22,399.85 398.52,390.09 398.04,388.74 ZM 523.31 372.03 C527.76,364.59 533.35,355.12 537.49,348.00 C543.10,338.38 549.06,328.25 550.74,325.50 C549.06,328.25 543.10,338.38 537.50,348.00 C533.12,355.53 527.43,365.17 523.31,372.03 ZM 433.18 325.18 C432.79,325.24 432.34,325.70 431.74,326.62 C432.35,325.63 432.81,325.01 432.96,325.01 C433.00,325.01 433.08,325.07 433.18,325.18 ZM 436.90 331.16 C436.23,330.01 435.67,329.03 435.25,328.28 C435.70,329.04 436.19,329.88 436.68,330.76 C436.75,330.89 436.82,331.03 436.90,331.16 ZM 712.16 288.90 C712.46,289.43 712.76,289.96 713.05,290.50 C713.17,290.73 713.30,290.96 713.44,291.21 C713.05,290.52 712.73,289.94 712.49,289.50 C712.38,289.30 712.27,289.10 712.16,288.90 ZM 440.93 281.00 L 440.97 281.00 L 441.37 281.65 L 440.93 281.00 ZM 705.62 282.42 C707.38,282.62 708.21,282.85 708.48,283.13 C708.52,283.18 708.58,283.24 708.64,283.32 C708.58,283.24 708.52,283.18 708.47,283.13 C708.21,282.85 707.38,282.62 705.62,282.42 Z" fill="rgba(167,130,46,1)"/>
<path d="M 720.28 302.94 C721.18,304.46 722.10,306.00 722.99,307.50 C738.63,333.62 753.90,360.42 751.48,357.50 C750.11,355.85 748.76,353.78 748.48,352.91 C748.20,352.04 746.81,350.70 745.39,349.94 C743.12,348.72 742.71,348.77 741.85,350.30 C741.31,351.26 740.45,351.78 739.93,351.46 C739.41,351.14 738.72,351.58 738.39,352.44 C738.06,353.30 737.35,354.00 736.82,354.00 C735.78,354.00 732.91,356.58 732.96,357.46 C732.98,357.76 733.00,358.35 733.00,358.78 C733.00,359.21 731.65,360.07 729.99,360.70 C727.83,361.51 726.81,362.69 726.38,364.87 C726.25,365.52 726.21,366.15 725.95,366.26 C724.96,366.69 720.61,359.29 694.22,315.09 C694.48,315.52 694.75,315.96 695.02,316.42 C698.37,322.11 699.73,323.64 700.69,322.84 C701.61,322.08 701.68,321.26 700.92,319.86 C700.35,318.79 700.17,317.04 700.51,315.96 C700.87,314.85 700.67,314.00 700.07,314.00 C699.48,314.00 699.00,313.63 699.00,313.17 C699.00,312.71 701.22,312.29 703.94,312.23 C707.14,312.16 710.56,311.22 713.68,309.56 C716.32,308.15 719.28,307.00 720.24,307.00 C722.15,307.00 722.48,306.88 720.28,302.94 ZM 595.52 479.50 C597.42,471.19 597.37,470.81 594.32,471.08 C592.77,471.22 588.30,470.36 584.39,469.17 C575.81,466.55 575.19,466.53 572.68,468.75 C571.60,469.71 570.89,470.05 571.10,469.50 C571.58,468.30 579.71,454.60 588.18,440.56 C586.67,443.08 585.23,445.51 583.92,447.75 C579.63,455.04 576.34,461.00 576.61,461.00 C577.38,461.00 587.92,449.80 587.79,449.12 C587.50,447.59 589.34,442.97 590.69,441.84 C591.51,441.16 593.68,440.70 595.52,440.83 C597.81,440.98 599.26,440.47 600.17,439.18 C601.55,437.24 605.34,434.88 606.71,435.10 C610.15,435.68 613.24,434.78 613.69,433.08 C614.01,431.86 615.54,430.84 617.85,430.29 C621.98,429.32 623.10,426.42 620.92,422.35 C620.23,421.06 619.85,419.84 620.08,419.65 C620.74,419.10 632.08,413.00 632.46,413.00 C632.64,413.00 632.72,414.60 632.63,416.54 C632.49,419.37 632.58,419.82 633.44,418.74 C622.58,437.10 601.27,472.46 596.76,479.50 L 594.84 482.50 ZM 435.70 281.00 L 440.93 281.00 L 443.46 284.73 C444.86,286.78 446.00,288.98 446.00,289.61 C446.00,290.24 446.65,291.29 447.44,291.95 C448.56,292.88 456.08,305.36 465.76,322.35 C466.03,322.82 465.13,322.48 463.76,321.58 C461.62,320.17 461.12,320.15 460.09,321.39 C459.23,322.42 458.10,322.60 456.08,322.02 C452.63,321.03 451.31,321.77 450.85,324.92 C450.40,328.05 448.42,328.70 447.70,325.95 C446.96,323.12 443.61,323.76 443.17,326.82 C442.99,328.09 442.21,329.37 441.43,329.67 C440.65,329.96 440.31,330.69 440.67,331.28 C441.03,331.87 441.67,334.17 442.07,336.41 C442.76,340.15 442.70,340.31 441.34,338.49 C440.52,337.39 438.42,333.92 436.68,330.76 C434.93,327.61 433.26,325.02 432.96,325.01 C432.73,325.01 431.84,326.36 430.79,328.28 C432.99,323.83 432.52,323.30 428.77,323.88 C428.36,323.94 427.79,322.75 427.48,321.24 C426.29,315.36 425.38,313.50 423.15,312.39 C418.83,310.23 418.44,309.22 420.94,306.56 C422.26,305.16 423.00,303.44 422.66,302.56 C422.34,301.72 422.41,301.13 422.83,301.26 C423.24,301.39 425.95,299.13 428.85,296.23 C433.29,291.80 434.25,290.18 434.91,285.98 L 435.70 281.00 ZM 609.53 320.46 C612.88,326.45 617.55,334.47 622.73,343.11 L 641.55 374.50 L 672.03 375.02 C688.79,375.31 700.85,375.65 698.83,375.77 C693.36,376.11 691.70,376.93 693.10,378.62 C693.73,379.38 695.06,380.00 696.06,380.00 C698.34,380.00 699.12,381.18 698.02,382.96 C697.33,384.09 696.90,384.04 695.56,382.70 C693.46,380.61 691.48,381.43 690.00,385.01 C688.93,387.57 688.56,387.76 686.41,386.78 C684.42,385.87 683.71,386.02 682.25,387.64 C681.29,388.71 679.75,389.43 678.83,389.24 C677.62,388.98 677.29,389.40 677.65,390.76 C678.25,393.06 675.66,395.41 673.23,394.77 C672.24,394.51 670.87,394.91 670.18,395.65 C669.49,396.39 667.74,397.00 666.29,397.00 C663.32,397.00 663.65,397.86 666.87,398.47 C668.04,398.70 669.34,399.08 669.75,399.32 C670.16,399.56 677.70,400.08 686.50,400.47 C695.30,400.86 702.69,401.37 702.92,401.59 C703.15,401.82 689.79,402.00 673.23,402.00 L 645.64 402.00 C646.11,401.97 646.64,401.96 647.28,401.96 L 651.50 401.91 L 647.84 399.98 C644.80,398.37 644.06,397.34 643.48,393.89 C642.83,390.04 643.01,389.54 645.89,387.29 C647.60,385.95 649.00,384.21 649.00,383.43 C649.00,382.64 649.73,382.00 650.62,382.00 C651.80,382.00 652.11,381.33 651.76,379.50 C651.59,378.62 651.47,378.03 651.69,377.62 C652.16,376.75 654.17,376.71 660.50,376.55 C673.96,376.22 672.82,375.52 658.03,375.04 L 641.55 374.50 L 641.55 374.50 L 622.73 343.11 C617.55,334.47 612.88,326.45 609.53,320.46 ZM 378.77 757.90 C371.71,746.13 362.74,731.12 354.75,717.72 C357.82,722.69 359.99,725.97 360.25,725.98 C360.66,725.99 361.00,724.40 361.00,722.44 C361.00,720.02 361.37,719.11 362.14,719.59 C362.94,720.08 363.13,719.47 362.78,717.63 C362.35,715.40 362.69,714.87 364.89,714.32 C367.46,713.69 370.73,710.25 370.23,708.71 C370.09,708.27 370.47,706.99 371.08,705.86 C371.86,704.40 372.87,703.93 374.59,704.26 C375.91,704.52 377.00,704.58 377.00,704.40 C377.00,704.22 374.52,699.99 371.50,695.00 C368.48,690.01 366.00,685.50 366.00,684.96 C366.05,685.57 371.12,694.42 377.32,704.71 C394.53,733.29 395.68,735.44 393.17,734.09 C391.36,733.12 390.82,733.35 389.30,735.73 C386.80,739.64 385.36,741.00 383.73,741.00 C382.96,741.00 381.81,742.12 381.18,743.50 C380.56,744.88 379.36,746.00 378.52,746.00 C375.30,746.00 376.36,751.20 381.15,758.82 C383.33,762.30 384.96,765.63 384.76,766.22 C384.56,766.81 381.87,763.07 378.77,757.90 ZM 376.52 655.51 C376.69,655.51 376.84,655.52 377.00,655.53 C380.58,655.67 387.91,655.84 393.31,655.90 C398.99,655.96 402.88,656.39 402.55,656.92 C402.24,657.43 402.64,658.49 403.44,659.29 C405.72,661.58 402.78,668.79 398.98,670.20 C398.14,670.51 397.35,672.01 397.23,673.53 C397.10,675.05 396.51,676.89 395.91,677.61 C394.42,679.41 395.52,680.80 399.30,681.89 C402.69,682.88 401.75,682.98 385.50,683.41 C383.14,683.48 381.05,683.53 379.21,683.59 C382.16,683.08 381.64,682.11 377.15,681.03 C370.84,679.52 369.47,676.83 373.36,673.62 C376.79,670.80 380.43,662.22 378.96,660.45 C378.36,659.73 378.02,658.33 378.19,657.32 C378.39,656.17 378.04,655.70 376.52,655.51 ZM 398.07 388.82 C398.72,390.44 404.34,400.05 411.14,411.11 C425.41,434.36 428.00,438.45 427.61,438.76 C427.48,438.86 427.05,438.57 426.60,438.40 C425.72,438.06 425.00,437.40 425.00,436.94 C425.00,436.47 423.76,434.86 422.26,433.35 L 419.51 430.60 L 418.75 435.55 C418.33,438.27 418.25,442.59 418.57,445.15 C419.13,449.54 418.99,449.89 416.08,451.61 C414.39,452.61 413.00,454.23 413.00,455.22 C413.00,456.20 412.66,456.89 412.25,456.75 C411.84,456.61 411.35,456.85 411.17,457.27 C410.64,458.52 412.09,464.00 412.96,464.00 C413.76,464.00 417.18,471.41 418.48,476.00 C418.87,477.38 413.49,469.27 406.53,458.00 C399.56,446.73 393.44,437.07 392.93,436.55 C392.42,436.03 392.00,434.95 392.00,434.15 C392.00,433.35 390.62,430.85 388.93,428.60 C390.62,430.85 392.00,433.20 392.00,433.81 C392.00,434.43 393.80,437.72 396.00,441.12 C398.20,444.53 400.00,446.52 400.00,445.54 C400.00,444.57 401.80,441.63 404.00,439.00 C406.20,436.37 408.00,433.48 408.00,432.58 C408.00,431.68 408.72,430.66 409.59,430.33 C410.86,429.84 411.05,428.83 410.53,425.35 C409.73,420.01 411.80,418.52 415.37,421.87 C416.61,423.04 417.94,424.00 418.31,424.00 C418.85,424.00 409.95,408.96 398.92,391.22 C398.59,390.70 398.29,390.38 398.13,390.01 C398.00,389.70 397.96,389.35 398.07,388.82 ZM 397.69 568.73 C405.93,582.51 413.07,594.33 414.63,596.75 C418.15,602.20 418.18,602.70 414.93,600.96 C413.41,600.15 413.00,600.26 413.00,601.46 C413.00,602.30 410.25,606.69 406.90,611.22 C401.35,618.70 400.84,619.80 401.31,623.31 C401.95,628.04 401.73,627.83 395.47,617.68 C392.71,613.19 389.77,609.39 388.94,609.23 C388.47,609.14 387.69,609.76 386.66,611.03 C387.64,609.77 388.40,609.00 388.74,609.00 C389.48,609.00 391.48,611.25 393.20,614.01 C396.16,618.78 398.36,620.41 396.08,616.15 C395.49,615.04 395.00,612.77 395.00,611.10 C395.00,607.50 398.48,598.25 400.80,595.67 C401.80,594.57 402.46,592.09 402.48,589.42 C402.49,586.99 402.88,585.00 403.35,585.00 C403.82,585.00 405.52,586.41 407.13,588.14 C408.74,589.86 410.24,591.10 410.46,590.88 C410.60,590.73 405.10,581.26 397.69,568.73 ZM 536.94 402.90 C534.69,406.45 532.69,409.58 530.95,412.24 C528.35,416.20 526.47,417.23 527.45,414.15 C528.32,411.42 525.92,407.55 520.40,402.77 C517.70,400.44 515.14,397.96 514.70,397.26 C514.26,396.57 513.02,396.00 511.95,396.00 C510.88,396.00 510.00,395.75 510.00,395.45 C510.00,394.40 513.34,388.43 520.31,377.00 C521.78,374.58 523.82,371.19 526.09,367.38 C523.89,371.08 521.93,374.35 520.52,376.67 C516.79,382.81 513.68,388.20 513.62,388.63 C513.51,389.37 515.66,390.04 524.00,391.87 C533.63,393.99 539.20,397.52 536.00,399.50 C534.84,400.22 534.63,404.00 535.76,404.00 C535.98,404.00 536.21,403.91 536.94,402.90 ZM 618.00 441.87 C618.00,443.79 619.31,442.22 623.33,435.46 C626.27,430.53 628.55,426.35 628.41,426.16 C628.27,425.97 626.91,426.42 625.39,427.16 C623.47,428.09 622.12,429.95 620.99,433.24 C620.09,435.84 619.05,438.28 618.68,438.65 C618.31,439.03 618.00,440.48 618.00,441.87 ZM 694.69 304.50 C694.84,308.80 694.56,310.00 693.39,310.00 C691.25,310.00 688.42,302.98 690.13,301.92 C690.83,301.49 691.77,301.36 692.23,301.64 C692.68,301.92 692.93,301.61 692.77,300.95 C692.62,300.29 692.95,299.58 693.50,299.38 C694.08,299.16 694.58,301.33 694.69,304.50 ZM 702.29 282.15 C706.43,282.40 708.08,282.71 708.47,283.13 C708.97,283.65 709.99,285.20 711.07,287.02 C710.26,285.94 709.28,285.33 708.80,285.63 C708.25,285.96 706.41,285.20 704.71,283.94 L 702.29 282.15 ZM 712.36 289.27 C712.40,289.35 712.44,289.42 712.49,289.50 C713.25,290.90 714.84,293.67 716.78,297.00 C714.95,294.16 713.79,293.13 712.79,293.38 C711.84,293.61 710.53,293.14 709.87,292.35 C708.90,291.17 709.07,290.79 710.79,290.34 C711.98,290.03 712.47,289.85 712.36,289.27 ZM 561.00 483.07 C561.00,482.48 561.64,482.00 562.42,482.00 C563.20,482.00 564.09,481.44 564.40,480.75 C564.71,480.06 564.85,480.39 564.72,481.49 C564.47,483.53 561.00,485.01 561.00,483.07 ZM 524.45 421.91 C524.08,421.31 524.28,420.32 524.89,419.71 C525.70,418.90 526.00,419.18 526.00,420.80 C526.00,423.21 525.48,423.59 524.45,421.91 ZM 580.30 332.50 C577.92,335.68 572.45,344.57 560.17,365.00 C555.63,372.55 551.35,379.61 547.43,386.01 C550.51,380.92 554.46,374.38 559.52,366.00 C572.42,344.63 577.94,335.67 580.30,332.50 ZM 328.89 674.44 C326.63,670.87 325.25,668.45 324.75,666.26 C325.45,668.20 327.05,671.36 328.89,674.44 ZM 427.73 334.08 C426.45,336.48 425.01,339.10 423.92,341.00 C418.27,350.89 415.80,355.34 409.46,367.00 C407.52,370.58 405.40,374.44 403.67,377.56 C405.13,374.88 406.94,371.58 409.16,367.50 C415.71,355.51 418.03,351.34 423.91,341.00 C424.96,339.16 426.40,336.55 427.73,334.08 ZM 337.73 689.12 C336.16,686.48 335.15,684.76 334.88,684.27 C334.67,683.91 334.40,683.45 334.08,682.90 C334.97,684.37 335.66,685.54 336.00,686.14 C336.23,686.56 336.84,687.60 337.73,689.12 ZM 361.00 654.10 C361.00,654.40 361.79,654.69 363.00,654.89 C361.45,654.70 361.00,654.46 361.00,654.10 ZM 576.09 282.20 L 588.80 281.46 C590.85,281.34 594.85,281.25 600.21,281.18 C594.86,281.25 590.85,281.35 588.75,281.47 L 576.09 282.20 ZM 325.61 660.13 C326.38,658.40 327.56,656.38 329.17,653.78 C327.55,656.40 326.39,658.47 325.61,660.13 ZM 359.01 504.49 C359.14,504.83 360.58,507.27 362.68,510.72 C360.65,507.42 359.14,504.87 359.01,504.49 ZM 367.56 655.19 C368.73,655.22 370.09,655.27 371.50,655.32 C369.98,655.27 368.68,655.23 367.56,655.19 ZM 689.66 309.13 C689.22,308.76 688.84,308.52 688.54,308.44 C688.55,308.44 688.55,308.44 688.55,308.44 C688.85,308.51 689.22,308.75 689.66,309.13 Z" fill="rgba(180,143,56,1)"/>
<path d="M 395.00 343.99 C396.22,344.76 396.63,344.15 397.18,340.72 C397.55,338.40 397.89,335.39 397.93,334.04 C397.99,331.92 397.81,331.78 396.66,333.04 C396.23,333.51 395.42,334.67 394.51,336.10 C396.02,333.48 397.00,331.73 397.00,331.62 C397.00,330.65 408.32,311.42 409.22,310.86 C409.79,310.51 409.95,309.72 409.57,309.11 C409.32,308.70 405.94,308.42 398.76,308.24 C405.72,308.18 410.00,308.07 410.00,307.91 C410.00,306.81 398.56,304.74 390.50,304.37 C380.59,303.91 372.96,300.61 374.74,297.55 C375.07,296.97 374.44,297.29 373.34,298.25 C370.74,300.53 370.60,300.51 365.64,297.09 C360.35,293.46 355.98,289.30 353.74,285.80 L 352.02 283.10 L 358.26 282.80 C361.69,282.63 368.20,282.84 372.72,283.26 C379.02,283.85 381.71,283.69 384.22,282.60 C387.15,281.32 383.58,281.16 351.00,281.10 C349.47,281.09 347.96,281.09 346.47,281.09 C355.12,281.04 364.87,281.02 375.10,281.01 L 435.70 281.00 L 434.91 285.98 C434.25,290.18 433.29,291.80 428.85,296.23 C425.95,299.13 423.24,301.39 422.83,301.26 C422.41,301.13 422.34,301.72 422.66,302.56 C423.00,303.44 422.26,305.16 420.94,306.56 C418.44,309.22 418.83,310.23 423.15,312.39 C425.38,313.50 426.29,315.36 427.48,321.24 C427.79,322.75 428.36,323.94 428.77,323.88 C432.90,323.24 433.05,323.95 430.04,329.75 C428.39,332.91 425.63,337.98 423.91,341.00 C421.43,345.37 419.58,348.64 417.77,351.86 C418.04,351.06 417.69,351.00 416.98,351.00 C416.42,351.00 415.41,352.24 414.74,353.75 C414.07,355.26 413.01,356.95 412.37,357.50 C411.74,358.05 410.65,360.30 409.96,362.50 C408.35,367.60 406.25,370.86 402.56,374.00 C399.80,376.35 394.32,377.91 395.49,376.01 C395.79,375.53 395.74,372.61 395.37,369.52 C394.73,364.05 394.64,363.92 392.02,364.50 C387.72,365.44 385.05,360.49 387.11,355.38 C388.60,351.67 389.08,348.00 388.07,348.00 C387.77,348.00 386.11,350.56 383.97,354.27 C386.18,350.36 388.63,346.11 390.63,342.74 C390.91,342.26 391.19,341.79 391.46,341.32 C390.18,343.72 390.34,344.03 391.65,343.62 C392.67,343.31 394.17,343.47 395.00,343.99 ZM 620.85 281.06 C630.35,281.05 640.98,281.10 651.51,281.19 L 701.60 281.65 L 704.71 283.94 C706.41,285.20 708.25,285.96 708.80,285.63 C709.34,285.29 710.48,286.09 711.35,287.40 C712.81,289.65 712.78,289.82 710.79,290.34 C709.07,290.79 708.90,291.17 709.87,292.35 C710.53,293.14 711.84,293.61 712.79,293.38 C714.03,293.07 715.53,294.73 718.25,299.41 C722.56,306.82 722.60,307.00 720.24,307.00 C719.28,307.00 716.32,308.15 713.68,309.56 C710.56,311.22 707.14,312.16 703.94,312.23 C701.22,312.29 699.00,312.71 699.00,313.17 C699.00,313.63 699.48,314.00 700.07,314.00 C700.67,314.00 700.87,314.85 700.51,315.96 C700.17,317.04 700.35,318.79 700.92,319.86 C701.68,321.26 701.61,322.08 700.69,322.84 C699.73,323.64 698.37,322.11 695.02,316.42 C692.36,311.91 689.79,308.74 688.55,308.44 C687.42,308.17 668.06,308.07 645.51,308.22 C608.80,308.47 604.49,308.67 604.22,310.11 L 604.22 310.10 C604.49,308.69 608.13,308.44 635.51,308.00 C664.15,307.54 666.06,307.40 660.72,306.17 C655.04,304.87 651.00,301.99 651.00,299.25 C651.00,298.50 650.57,298.15 650.04,298.47 C648.60,299.37 645.00,296.76 645.00,294.82 C645.00,293.88 644.51,292.82 643.91,292.45 C642.32,291.46 644.37,289.74 647.54,289.40 C650.93,289.04 653.03,287.25 652.30,285.34 C651.93,284.37 650.86,283.98 649.36,284.27 C648.06,284.52 647.00,284.34 647.00,283.86 C647.00,283.39 649.36,282.97 652.25,282.93 C655.14,282.89 658.40,282.47 659.50,282.00 C660.85,281.42 640.81,281.07 620.85,281.06 ZM 583.92 447.75 C591.11,435.51 602.13,417.42 606.22,411.14 C607.16,409.69 608.62,406.99 609.46,405.14 C610.30,403.29 612.64,399.07 614.65,395.76 C615.45,394.43 616.08,393.39 616.55,392.55 C615.93,393.79 615.33,395.00 615.14,395.44 C614.90,395.95 616.24,394.94 618.10,393.19 C619.97,391.44 621.84,390.01 622.25,390.00 C622.66,390.00 623.01,388.99 623.02,387.75 C623.04,384.33 624.47,382.70 626.79,383.43 C629.35,384.25 630.49,382.52 630.14,378.39 C629.93,375.98 630.50,374.75 632.57,373.12 C634.05,371.96 636.11,371.00 637.13,371.00 C638.16,371.00 639.00,370.83 639.00,370.63 C639.00,370.42 631.10,357.08 621.45,340.98 C612.13,325.43 604.58,311.93 604.23,310.24 C604.59,311.96 612.71,326.40 622.73,343.11 L 641.55 374.50 L 658.03 375.04 C672.82,375.52 673.96,376.22 660.50,376.55 C654.17,376.71 652.16,376.75 651.69,377.62 C651.47,378.03 651.59,378.62 651.76,379.50 C652.11,381.33 651.80,382.00 650.62,382.00 C649.73,382.00 649.00,382.64 649.00,383.43 C649.00,384.21 647.60,385.95 645.89,387.29 C643.01,389.54 642.83,390.04 643.48,393.89 C644.06,397.34 644.80,398.37 647.84,399.98 L 651.50 401.91 L 647.28 401.96 C643.08,402.00 643.03,402.04 639.07,409.25 C636.88,413.24 634.50,417.31 633.78,418.29 C632.61,419.89 632.48,419.70 632.63,416.54 C632.72,414.60 632.64,413.00 632.46,413.00 C632.08,413.00 620.74,419.10 620.08,419.65 C619.85,419.84 620.23,421.06 620.92,422.35 C623.10,426.42 621.98,429.32 617.85,430.29 C615.54,430.84 614.01,431.86 613.69,433.08 C613.24,434.78 610.15,435.68 606.71,435.10 C605.34,434.88 601.55,437.24 600.17,439.18 C599.26,440.47 597.81,440.98 595.52,440.83 C593.68,440.70 591.51,441.16 590.69,441.84 C589.34,442.97 587.50,447.59 587.79,449.12 C587.92,449.80 577.38,461.00 576.61,461.00 C576.34,461.00 579.63,455.04 583.92,447.75 ZM 348.50 707.39 C344.04,699.85 339.80,692.67 337.56,688.84 C337.93,689.14 338.06,688.79 337.93,687.75 C337.44,684.04 338.13,681.00 339.45,681.00 C342.26,681.00 346.00,678.66 346.00,676.90 C346.00,674.70 347.41,673.78 351.97,673.04 C355.04,672.53 355.46,672.13 355.20,669.92 C355.02,668.36 355.68,666.69 356.93,665.56 C358.04,664.56 358.70,663.32 358.38,662.81 C358.07,662.30 358.09,660.79 358.42,659.44 C358.96,657.31 359.60,657.00 363.52,657.00 C365.98,657.00 368.00,656.55 368.00,656.00 C368.00,655.62 367.26,655.29 366.18,655.12 C368.25,655.23 371.10,655.31 375.00,655.41 C377.81,655.48 378.44,655.86 378.19,657.32 C378.02,658.33 378.36,659.73 378.96,660.45 C380.43,662.22 376.79,670.80 373.36,673.62 C369.47,676.83 370.84,679.52 377.15,681.03 C383.77,682.62 381.77,683.96 372.75,683.98 C370.07,683.99 367.75,684.22 366.66,684.55 C367.57,683.67 367.48,683.43 366.32,683.16 C364.46,682.74 363.60,683.55 364.45,684.92 C364.82,685.53 365.33,685.58 366.02,685.09 C366.28,686.01 368.65,690.29 371.50,695.00 C374.52,699.99 377.00,704.22 377.00,704.40 C377.00,704.58 375.91,704.52 374.59,704.26 C372.87,703.93 371.86,704.40 371.08,705.86 C370.47,706.99 370.09,708.27 370.23,708.71 C370.73,710.25 367.46,713.69 364.89,714.32 C362.69,714.87 362.35,715.40 362.78,717.63 C363.13,719.47 362.94,720.08 362.14,719.59 C361.37,719.11 361.00,720.02 361.00,722.44 C361.00,724.40 360.66,725.99 360.25,725.98 C359.84,725.97 354.55,717.60 348.50,707.39 ZM 399.74 392.54 C410.39,409.69 418.84,424.00 418.31,424.00 C417.94,424.00 416.61,423.04 415.37,421.87 C411.80,418.52 409.73,420.01 410.53,425.35 C411.05,428.83 410.86,429.84 409.59,430.33 C408.72,430.66 408.00,431.68 408.00,432.58 C408.00,433.48 406.20,436.37 404.00,439.00 C401.80,441.63 400.00,444.57 400.00,445.54 C400.00,446.52 398.20,444.53 396.00,441.12 C393.80,437.72 392.00,434.43 392.00,433.81 C392.00,433.20 390.62,430.85 388.93,428.60 C387.23,426.34 382.78,419.55 379.03,413.50 L 373.38 404.40 L 378.10 411.90 C381.34,417.07 383.98,420.67 383.96,419.90 C383.95,419.13 383.29,417.38 382.50,416.00 C380.18,411.94 380.73,410.15 386.00,404.71 C389.59,401.01 391.00,398.76 391.00,396.74 C391.00,395.18 391.66,393.68 392.49,393.36 C393.32,393.05 393.76,392.42 393.48,391.96 C393.20,391.51 393.38,390.88 393.88,390.57 C394.38,390.26 395.05,390.68 395.36,391.51 C395.68,392.33 396.94,393.00 398.17,393.00 C399.32,393.00 399.80,392.88 399.74,392.54 ZM 396.15 566.13 C404.33,579.93 410.61,590.72 410.46,590.88 C410.24,591.10 408.74,589.86 407.13,588.14 C405.52,586.41 403.82,585.00 403.35,585.00 C402.88,585.00 402.49,586.99 402.48,589.42 C402.46,592.09 401.80,594.57 400.80,595.67 C398.48,598.25 395.00,607.50 395.00,611.10 C395.00,612.77 395.49,615.04 396.08,616.15 C398.36,620.41 396.16,618.78 393.20,614.01 C391.93,611.98 390.51,610.22 389.55,609.43 C391.21,609.85 391.20,609.68 390.39,607.58 C390.00,606.57 388.56,606.00 386.39,606.00 C384.41,606.00 382.95,605.48 382.88,604.75 C381.84,593.45 382.79,585.72 385.47,583.80 C386.02,583.41 385.70,582.87 384.72,582.55 C383.77,582.25 382.23,581.75 381.29,581.45 C379.87,581.00 380.23,580.30 383.35,577.45 C385.42,575.55 386.85,573.56 386.52,573.03 C386.19,572.49 386.72,570.83 387.70,569.33 C388.68,567.84 389.35,565.80 389.18,564.80 C388.80,562.59 389.26,562.57 393.25,564.63 L 396.15 566.13 ZM 550.56 380.83 C537.04,403.19 536.43,404.00 535.76,404.00 C534.63,404.00 534.84,400.22 536.00,399.50 C539.20,397.52 533.63,393.99 524.00,391.87 C515.66,390.04 513.51,389.37 513.62,388.63 C513.68,388.20 516.79,382.81 520.52,376.67 C521.23,375.52 522.06,374.12 523.00,372.56 C522.20,374.24 523.08,374.24 526.15,374.04 C527.61,373.95 529.07,374.30 529.40,374.83 C530.36,376.39 537.88,380.00 540.17,380.00 C542.71,380.00 544.92,382.66 544.97,385.75 C544.99,386.99 545.34,387.99 545.75,387.98 C545.97,387.97 547.81,385.21 550.56,380.83 ZM 618.00 441.87 C618.00,440.48 618.31,439.03 618.68,438.65 C619.05,438.28 620.09,435.84 620.99,433.24 C622.12,429.95 623.47,428.09 625.39,427.16 C626.91,426.42 628.27,425.97 628.41,426.16 C628.55,426.35 626.27,430.53 623.33,435.46 C619.31,442.22 618.00,443.79 618.00,441.87 ZM 694.69 304.50 C694.58,301.33 694.08,299.16 693.50,299.38 C692.95,299.58 692.62,300.29 692.77,300.95 C692.93,301.61 692.68,301.92 692.23,301.64 C691.77,301.36 690.83,301.49 690.13,301.92 C688.42,302.98 691.25,310.00 693.39,310.00 C694.56,310.00 694.84,308.80 694.69,304.50 ZM 372.82 628.67 C372.34,631.18 370.00,631.52 370.00,629.08 C370.00,627.85 370.65,627.00 371.57,627.00 C372.50,627.00 373.01,627.68 372.82,628.67 ZM 524.79 369.57 C528.67,363.06 533.58,354.73 537.50,348.00 C543.10,338.38 549.06,328.25 550.74,325.50 C549.06,328.25 543.11,338.38 537.53,348.00 C532.08,357.39 526.44,366.93 524.79,369.57 ZM 411.99 362.33 C411.13,363.89 410.20,365.60 409.16,367.50 C406.03,373.24 403.72,377.44 402.05,380.55 C404.64,375.57 408.22,368.99 411.99,362.33 ZM 324.87 666.58 C324.60,665.87 324.42,665.30 324.38,664.92 C324.25,663.79 324.59,662.35 325.53,660.30 C324.53,662.62 324.31,664.46 324.87,666.58 ZM 362.68 510.72 C363.16,511.50 363.67,512.32 364.20,513.17 C366.26,516.46 368.94,520.84 371.98,525.83 C370.87,524.02 369.80,522.28 368.81,520.68 C366.50,516.96 364.36,513.49 362.68,510.72 ZM 576.03 282.30 L 576.09 282.20 L 583.37 281.78 L 576.03 282.30 ZM 617.45 388.54 C617.27,388.12 617.00,387.68 616.65,387.12 C616.40,386.71 615.59,385.40 614.39,383.44 C614.76,384.03 615.07,384.49 615.31,384.85 C616.47,386.57 617.15,387.66 617.45,388.54 ZM 387.45 610.07 C386.25,611.44 384.47,613.99 382.71,616.92 C384.92,613.21 386.36,611.08 387.45,610.07 ZM 398.20 390.15 C398.37,390.47 398.63,390.77 398.92,391.22 C399.09,391.50 399.26,391.77 399.43,392.04 C399.36,391.97 399.29,391.89 399.20,391.80 C398.78,391.38 398.41,390.76 398.20,390.15 ZM 588.92 281.46 C591.66,281.31 597.38,281.20 604.91,281.13 C598.56,281.19 592.93,281.30 588.92,281.46 ZM 387.40 551.43 C389.52,554.98 391.62,558.50 393.64,561.90 C392.23,559.57 389.89,555.66 387.40,551.43 ZM 328.14 308.00 L 328.17 307.96 L 334.70 308.00 L 328.14 308.00 ZM 362.07 654.75 C362.54,654.84 363.20,654.92 364.11,654.99 C363.32,654.97 362.61,654.88 362.07,654.75 ZM 381.40 358.85 C381.32,358.99 381.24,359.14 381.16,359.29 C380.56,360.40 379.96,361.49 379.37,362.56 C379.47,362.37 379.57,362.19 379.67,362.00 C380.16,361.09 380.75,360.02 381.40,358.85 ZM 352.23 493.23 C356.16,499.57 359.00,504.24 359.00,504.45 C359.00,504.47 359.02,504.53 359.06,504.61 C359.02,504.53 359.00,504.48 359.00,504.47 C359.00,504.25 356.18,499.59 352.23,493.23 ZM 583.84 333.43 C582.86,332.00 582.05,331.04 581.79,331.02 C581.79,331.02 581.79,331.02 581.80,331.02 C582.05,331.02 582.85,331.99 583.84,333.43 ZM 573.90 342.35 C572.92,343.95 571.81,345.75 570.57,347.77 C571.79,345.77 572.90,343.97 573.90,342.35 ZM 398.07 388.84 C398.03,389.01 398.01,389.17 398.01,389.31 C398.00,389.26 398.00,389.21 398.00,389.17 C398.00,389.10 398.02,388.99 398.07,388.84 Z" fill="rgba(193,158,66,1)"/>
<path d="M 335.93 686.25 C335.15,684.74 332.31,679.99 329.62,675.69 C322.98,665.09 322.95,663.85 329.17,653.78 C331.98,649.23 335.88,642.81 337.83,639.52 C339.78,636.23 342.93,631.50 344.84,629.02 C346.75,626.53 349.55,621.80 351.06,618.50 C352.57,615.20 357.90,605.54 362.90,597.04 C367.91,588.53 372.00,580.88 372.00,580.04 C371.99,579.19 371.09,577.03 370.00,575.23 C368.90,573.43 368.00,571.45 368.00,570.84 C368.00,570.22 367.35,569.22 366.55,568.61 C364.99,567.41 341.26,528.72 337.05,520.50 C335.69,517.83 331.75,511.38 328.19,505.97 C329.13,506.71 329.08,505.06 327.55,502.32 C326.68,500.77 325.60,498.83 325.13,498.00 C324.67,497.17 323.46,494.78 322.45,492.68 C320.53,488.69 316.40,485.24 317.72,488.73 C318.08,489.70 319.92,492.98 321.79,496.00 C322.27,496.79 322.79,497.63 323.30,498.46 C321.32,495.36 319.64,492.66 318.88,491.34 C315.09,484.72 311.17,478.12 306.43,470.37 C308.84,474.12 310.67,476.49 310.84,475.99 C311.05,475.35 310.72,474.32 310.11,473.71 C308.07,471.67 308.81,468.26 311.46,467.60 C314.29,466.89 318.54,461.73 319.51,457.82 C319.88,456.35 320.84,454.89 321.65,454.58 C322.46,454.27 322.89,453.62 322.59,453.15 C322.30,452.67 323.20,452.41 324.60,452.56 C326.36,452.75 327.00,452.44 326.65,451.54 C326.45,451.00 323.35,445.72 319.37,439.02 C328.56,454.29 338.06,470.18 339.10,472.06 C339.87,473.47 341.85,476.75 343.50,479.35 C351.29,491.62 359.00,504.11 359.00,504.47 C359.00,504.69 363.41,511.99 368.81,520.68 C374.20,529.38 381.92,542.12 385.97,549.00 C390.01,555.88 394.01,562.57 394.86,563.88 L 396.40 566.26 L 393.25 564.63 C389.26,562.57 388.80,562.59 389.18,564.80 C389.35,565.80 388.68,567.84 387.70,569.33 C386.72,570.83 386.19,572.49 386.52,573.03 C386.85,573.56 385.42,575.55 383.35,577.45 C380.23,580.30 379.87,581.00 381.29,581.45 C382.23,581.75 383.77,582.25 384.72,582.55 C385.70,582.87 386.02,583.41 385.47,583.80 C382.79,585.72 381.84,593.45 382.88,604.75 C382.95,605.48 384.41,606.00 386.39,606.00 C388.56,606.00 390.00,606.57 390.39,607.58 C391.25,609.81 391.21,609.87 389.23,609.35 C387.89,609.00 386.30,610.86 382.55,617.19 C379.85,621.76 373.89,631.73 369.32,639.35 C365.01,646.53 361.44,652.83 361.04,653.95 C360.29,653.12 359.00,653.63 359.00,655.06 C359.00,655.58 359.66,656.00 360.47,656.00 C361.36,656.00 361.71,655.41 361.36,654.51 C361.36,654.50 361.36,654.50 361.36,654.50 C361.93,654.79 363.13,655.00 364.50,655.00 C366.42,655.00 368.00,655.45 368.00,656.00 C368.00,656.55 365.98,657.00 363.52,657.00 C359.60,657.00 358.96,657.31 358.42,659.44 C358.09,660.79 358.07,662.30 358.38,662.81 C358.70,663.32 358.04,664.56 356.93,665.56 C355.68,666.69 355.02,668.36 355.20,669.92 C355.46,672.13 355.04,672.53 351.97,673.04 C347.41,673.78 346.00,674.70 346.00,676.90 C346.00,678.66 342.26,681.00 339.45,681.00 C338.13,681.00 337.44,684.04 337.93,687.75 C338.19,689.76 337.44,689.20 335.93,686.25 ZM 275.07 343.27 C278.03,338.06 280.64,333.41 282.09,330.79 C284.73,326.00 290.24,316.33 294.33,309.29 C298.42,302.26 303.61,293.29 305.85,289.37 C308.51,284.75 310.74,282.03 312.22,281.64 C313.47,281.30 330.92,281.06 351.00,281.10 C383.58,281.16 387.15,281.32 384.22,282.60 C381.71,283.69 379.02,283.85 372.72,283.26 C368.20,282.84 361.69,282.63 358.26,282.80 L 352.02 283.10 L 353.74 285.80 C355.98,289.30 360.35,293.46 365.64,297.09 C370.60,300.51 370.74,300.53 373.34,298.25 C374.44,297.29 375.07,296.97 374.74,297.55 C372.96,300.61 380.59,303.91 390.50,304.37 C398.56,304.74 410.00,306.81 410.00,307.91 C410.00,308.23 391.59,308.38 369.08,308.23 L 328.17 307.96 L 326.24 310.73 C324.32,313.48 311.80,334.92 306.52,344.50 C305.00,347.25 300.67,354.73 296.88,361.13 C293.74,366.44 291.07,371.32 290.26,373.20 C290.92,371.59 292.80,368.04 295.00,364.31 C297.75,359.63 300.00,355.64 300.00,355.43 C300.00,355.22 298.82,355.50 297.37,356.05 C294.53,357.13 291.00,356.48 291.00,354.87 C291.00,354.33 290.56,354.16 290.01,354.49 C289.44,354.84 289.28,354.44 289.62,353.55 C290.05,352.43 289.58,352.00 287.92,352.00 C285.78,352.00 285.75,351.91 287.40,350.70 C289.06,349.49 289.06,349.30 287.51,348.01 C286.10,346.83 285.72,346.83 284.99,348.02 C284.52,348.78 284.35,349.76 284.62,350.20 C284.90,350.64 284.14,351.00 282.95,351.00 C281.42,351.00 280.96,350.56 281.39,349.50 L 282.61 346.50 C283.32,344.75 282.16,344.61 278.48,346.01 C275.92,346.98 275.86,346.92 276.50,344.01 C276.86,342.35 276.95,341.00 276.69,341.00 C276.56,341.00 275.95,341.87 275.07,343.27 ZM 331.63 374.73 C369.92,374.34 372.38,374.20 373.66,372.44 C374.42,371.42 377.79,365.50 381.16,359.29 C384.53,353.08 387.64,348.00 388.07,348.00 C389.08,348.00 388.60,351.67 387.11,355.38 C385.05,360.49 387.72,365.44 392.02,364.50 C394.64,363.92 394.73,364.05 395.37,369.52 C395.74,372.61 395.79,375.53 395.49,376.01 C394.32,377.91 399.80,376.35 402.56,374.00 C406.25,370.86 408.35,367.60 409.96,362.50 C410.65,360.30 411.74,358.05 412.37,357.50 C413.01,356.95 414.07,355.26 414.74,353.75 C415.41,352.24 416.42,351.00 416.98,351.00 C418.44,351.00 418.36,351.24 414.64,357.68 C406.30,372.16 398.00,387.86 398.00,389.17 C398.00,389.96 398.54,391.14 399.20,391.80 C400.13,392.73 399.90,393.00 398.17,393.00 C396.94,393.00 395.68,392.33 395.36,391.51 C395.05,390.68 394.38,390.26 393.88,390.57 C393.38,390.88 393.20,391.51 393.48,391.96 C393.76,392.42 393.32,393.05 392.49,393.36 C391.66,393.68 391.00,395.18 391.00,396.74 C391.00,398.76 389.59,401.01 386.00,404.71 C380.73,410.15 380.18,411.94 382.50,416.00 C383.29,417.38 383.95,419.13 383.96,419.90 C383.98,420.67 381.34,417.07 378.10,411.90 L 372.19 402.50 L 335.60 402.24 C308.36,402.04 299.96,401.75 298.97,404.03 C298.99,402.29 301.17,402.00 306.07,402.00 C312.59,402.00 313.02,401.87 311.52,400.38 C310.03,398.89 310.04,398.62 311.59,396.90 C312.97,395.38 313.04,394.76 312.02,393.52 C311.32,392.68 310.17,392.00 309.46,392.00 C307.90,392.00 301.00,384.17 301.00,382.40 C301.00,381.72 300.44,380.94 299.75,380.66 C298.81,380.28 298.87,379.89 300.00,379.09 C301.99,377.69 303.57,378.31 303.21,380.35 C303.04,381.26 303.38,382.00 303.96,382.00 C304.53,382.00 305.00,380.92 305.00,379.59 C305.00,377.46 305.55,377.13 309.75,376.66 C312.36,376.37 322.72,376.12 332.76,376.11 C342.81,376.10 351.70,375.70 352.53,375.24 C353.21,374.86 344.39,374.67 331.63,374.73 ZM 615.14 395.44 C615.37,394.92 616.16,393.31 616.90,391.85 C618.11,389.43 617.97,388.81 615.31,384.85 C612.87,381.22 603.61,366.06 585.50,336.01 C585.30,335.69 585.11,335.37 584.92,335.06 C585.11,335.36 585.31,335.67 585.50,335.99 L 595.48 352.48 C599.31,358.81 602.80,364.00 603.23,364.00 C603.65,364.00 604.00,362.88 604.00,361.52 C604.00,359.78 605.88,357.22 610.23,353.02 C613.65,349.71 616.80,347.00 617.23,347.00 C617.65,347.00 618.00,346.35 618.00,345.57 C618.00,344.78 619.11,343.99 620.46,343.82 C622.83,343.51 622.58,342.94 613.42,327.58 C608.34,319.07 604.29,311.39 604.22,310.17 C604.35,311.53 611.99,325.19 621.45,340.98 C631.10,357.08 639.00,370.42 639.00,370.63 C639.00,370.83 638.16,371.00 637.13,371.00 C636.11,371.00 634.05,371.96 632.57,373.12 C630.50,374.75 629.93,375.98 630.14,378.39 C630.49,382.52 629.35,384.25 626.79,383.43 C624.47,382.70 623.04,384.33 623.02,387.75 C623.01,388.99 622.66,390.00 622.25,390.00 C621.84,390.01 619.97,391.44 618.10,393.19 C616.24,394.94 614.90,395.95 615.14,395.44 ZM 612.55 281.08 C634.79,280.98 661.04,281.34 659.50,282.00 C658.40,282.47 655.14,282.89 652.25,282.93 C649.36,282.97 647.00,283.39 647.00,283.86 C647.00,284.34 648.06,284.52 649.36,284.27 C650.86,283.98 651.93,284.37 652.30,285.34 C653.03,287.25 650.93,289.04 647.54,289.40 C644.37,289.74 642.32,291.46 643.91,292.45 C644.51,292.82 645.00,293.88 645.00,294.82 C645.00,296.76 648.60,299.37 650.04,298.47 C650.57,298.15 651.00,298.50 651.00,299.25 C651.00,301.99 655.04,304.87 660.72,306.17 C666.06,307.40 664.15,307.54 635.51,308.00 C608.13,308.44 604.49,308.69 604.22,310.10 C604.22,310.11 604.22,310.11 604.22,310.11 C604.22,310.10 604.22,310.09 604.22,310.08 C604.47,308.78 606.71,308.40 617.01,307.95 C623.88,307.65 627.78,307.31 625.68,307.20 C619.28,306.86 618.22,305.79 618.75,300.25 C619.10,296.62 618.82,295.09 617.61,294.09 C615.56,292.39 615.58,291.12 617.68,288.81 C618.96,287.39 619.08,286.68 618.18,285.78 C617.53,285.13 617.00,283.79 617.00,282.80 C617.00,281.65 616.46,281.23 612.55,281.08 ZM 559.58 362.84 C559.38,364.01 559.17,364.94 559.37,365.04 C559.75,365.22 561.66,362.24 568.14,351.76 C565.66,355.88 562.78,360.67 559.46,366.23 C552.33,378.18 546.16,387.97 545.75,387.98 C545.34,387.99 544.99,386.99 544.97,385.75 C544.92,382.66 542.71,380.00 540.17,380.00 C537.88,380.00 530.36,376.39 529.40,374.83 C529.07,374.30 527.61,373.95 526.15,374.04 C521.89,374.32 521.85,374.20 524.67,369.75 C525.59,368.30 528.17,363.99 531.32,358.62 C530.57,360.05 530.41,361.00 530.96,361.00 C531.59,361.00 532.86,359.65 533.80,358.01 C534.73,356.36 536.06,355.01 536.75,355.01 C537.44,355.00 538.06,354.55 538.12,354.00 C538.19,353.45 538.36,352.55 538.50,352.00 C538.64,351.45 538.81,350.62 538.88,350.17 C538.94,349.71 539.62,349.33 540.39,349.33 C541.29,349.33 541.71,350.32 541.58,352.12 C541.41,354.67 541.65,354.88 544.41,354.56 C546.18,354.36 547.86,354.78 548.47,355.58 C549.04,356.34 551.08,357.05 553.00,357.15 C558.94,357.48 560.28,358.64 559.58,362.84 ZM 263.73 363.14 C264.97,360.97 266.25,358.72 267.52,356.50 C268.17,355.37 268.84,354.20 269.51,353.02 C268.31,355.40 267.67,357.00 267.97,357.00 C268.42,357.00 269.07,356.27 269.41,355.38 C269.88,354.14 270.80,353.91 273.23,354.40 C278.09,355.37 278.93,356.78 276.00,359.04 C274.62,360.10 272.97,360.78 272.33,360.55 C271.69,360.31 270.92,360.77 270.62,361.55 C270.21,362.63 269.46,362.75 267.61,362.04 C266.79,361.73 266.20,361.50 265.65,361.56 C265.06,361.64 264.50,362.07 263.73,363.14 ZM 347.51 538.25 C350.72,543.61 353.49,548.00 353.67,548.00 C353.85,548.00 354.00,546.94 354.00,545.65 C354.00,543.28 346.95,532.44 341.63,526.63 C340.49,525.39 339.72,524.52 339.61,524.60 C339.40,524.75 341.44,528.12 347.51,538.25 ZM 395.00 343.99 C394.17,343.47 392.67,343.31 391.65,343.62 C390.05,344.12 390.17,343.55 392.56,339.35 C394.08,336.68 395.92,333.84 396.66,333.04 C397.81,331.78 397.99,331.92 397.93,334.04 C397.89,335.39 397.55,338.40 397.18,340.72 C396.63,344.15 396.22,344.76 395.00,343.99 ZM 303.37 465.39 C300.85,461.31 298.09,456.89 295.01,452.00 C293.82,450.10 292.55,448.08 291.26,446.02 L 292.40 447.73 L 294.16 445.62 C295.50,444.01 295.96,443.86 296.04,445.00 C296.10,445.83 296.30,447.29 296.49,448.25 C296.69,449.29 296.21,450.00 295.31,450.00 C294.09,450.00 294.21,450.62 295.92,453.25 C296.98,454.89 300.21,460.15 303.37,465.39 ZM 315.00 436.97 C315.00,437.54 314.44,437.98 313.75,437.96 C312.17,437.91 309.92,435.41 310.73,434.61 C311.06,434.27 310.84,434.00 310.23,434.00 C309.62,434.00 309.19,433.12 309.27,432.05 C309.38,430.58 309.73,430.36 310.71,431.17 C311.42,431.76 312.00,432.82 312.00,433.52 C312.00,434.21 312.67,435.05 313.50,435.36 C314.33,435.68 315.00,436.40 315.00,436.97 ZM 277.73 424.24 C277.23,423.42 276.77,422.67 276.37,422.00 C272.51,415.67 265.64,404.42 261.10,397.00 L 252.83 383.50 L 255.29 378.50 C255.55,377.98 255.96,377.19 256.49,376.20 C254.47,380.25 254.26,381.62 254.99,382.98 C255.60,384.11 255.85,385.44 255.55,385.92 C255.25,386.40 260.02,395.06 266.15,405.15 C270.01,411.51 274.34,418.65 277.73,424.24 ZM 372.82 628.67 C373.01,627.68 372.50,627.00 371.57,627.00 C370.65,627.00 370.00,627.85 370.00,629.08 C370.00,631.52 372.34,631.18 372.82,628.67 ZM 369.50 375.00 C367.73,375.76 367.81,375.87 370.25,375.93 C371.76,375.97 373.00,375.55 373.00,375.00 C373.00,373.83 372.23,373.83 369.50,375.00 ZM 290.00 373.98 C290.15,374.79 297.91,375.01 321.94,374.82 C297.22,375.15 290.00,374.97 290.00,374.02 C290.00,374.01 290.00,374.00 290.00,373.98 ZM 532.53 356.56 C534.13,353.83 535.84,350.91 537.53,348.00 C539.41,344.76 541.33,341.46 543.11,338.41 C542.31,339.78 541.51,341.16 540.74,342.50 C537.52,348.07 534.16,353.83 532.53,356.56 Z" fill="rgba(208,176,80,1)"/>
<path d="M 364.45 684.92 C363.60,683.55 364.46,682.74 366.32,683.16 C367.56,683.44 367.58,683.70 366.45,684.74 C365.54,685.59 364.90,685.64 364.45,684.92 ZM 359.00 655.06 C359.00,653.38 360.77,652.97 361.36,654.51 C361.71,655.41 361.36,656.00 360.47,656.00 C359.66,656.00 359.00,655.58 359.00,655.06 ZM 347.51 538.25 C338.16,522.65 338.37,523.08 341.63,526.63 C346.95,532.44 354.00,543.28 354.00,545.65 C354.00,546.94 353.85,548.00 353.67,548.00 C353.49,548.00 350.72,543.61 347.51,538.25 ZM 326.84 504.23 C325.93,502.73 323.66,499.02 321.79,496.00 C319.92,492.98 318.08,489.70 317.72,488.73 C316.40,485.24 320.53,488.69 322.45,492.68 C323.46,494.78 324.67,497.17 325.13,498.00 C325.60,498.83 326.68,500.77 327.55,502.32 C329.62,506.03 328.98,507.75 326.84,504.23 ZM 304.24 466.83 C300.82,461.15 297.08,455.04 295.92,453.25 C294.21,450.62 294.09,450.00 295.31,450.00 C296.21,450.00 296.69,449.29 296.49,448.25 C296.30,447.29 296.10,445.83 296.04,445.00 C295.96,443.86 295.50,444.01 294.16,445.62 L 292.40 447.73 L 290.00 444.12 C288.68,442.13 285.28,436.67 282.44,432.00 C279.61,427.33 272.28,415.24 266.15,405.15 C260.02,395.06 255.25,386.40 255.55,385.92 C255.85,385.44 255.60,384.11 254.99,382.98 C254.06,381.25 254.65,379.50 258.59,372.21 C264.74,360.81 264.65,360.92 267.61,362.04 C269.46,362.75 270.21,362.63 270.62,361.55 C270.92,360.77 271.69,360.31 272.33,360.55 C272.97,360.78 274.62,360.10 276.00,359.04 C278.93,356.78 278.09,355.37 273.23,354.40 C270.80,353.91 269.88,354.14 269.41,355.38 C269.07,356.27 268.42,357.00 267.97,357.00 C267.52,357.00 269.19,353.40 271.68,349.00 C274.17,344.60 276.43,341.00 276.69,341.00 C276.95,341.00 276.86,342.35 276.50,344.01 C275.86,346.92 275.92,346.98 278.48,346.01 C282.16,344.61 283.32,344.75 282.61,346.50 C282.27,347.33 281.73,348.67 281.39,349.50 C280.96,350.56 281.42,351.00 282.95,351.00 C284.14,351.00 284.90,350.64 284.62,350.20 C284.35,349.76 284.52,348.78 284.99,348.02 C285.72,346.83 286.10,346.83 287.51,348.01 C289.06,349.30 289.06,349.49 287.40,350.70 C285.75,351.91 285.78,352.00 287.92,352.00 C289.58,352.00 290.05,352.43 289.62,353.55 C289.28,354.44 289.44,354.84 290.01,354.49 C290.56,354.16 291.00,354.33 291.00,354.87 C291.00,356.48 294.53,357.13 297.37,356.05 C298.82,355.50 300.00,355.22 300.00,355.43 C300.00,355.64 297.75,359.63 295.00,364.31 C292.25,368.98 290.00,373.35 290.00,374.02 C290.00,374.97 297.24,375.15 322.02,374.82 C339.71,374.59 353.37,374.77 352.53,375.24 C351.70,375.70 342.81,376.10 332.76,376.11 C322.72,376.12 312.36,376.37 309.75,376.66 C305.55,377.13 305.00,377.46 305.00,379.59 C305.00,380.92 304.53,382.00 303.96,382.00 C303.38,382.00 303.04,381.26 303.21,380.35 C303.57,378.31 301.99,377.69 300.00,379.09 C298.87,379.89 298.81,380.28 299.75,380.66 C300.44,380.94 301.00,381.72 301.00,382.40 C301.00,384.17 307.90,392.00 309.46,392.00 C310.17,392.00 311.32,392.68 312.02,393.52 C313.04,394.76 312.97,395.38 311.59,396.90 C310.04,398.62 310.03,398.89 311.52,400.38 C313.02,401.87 312.59,402.00 306.07,402.00 C297.67,402.00 297.26,402.86 302.04,410.40 C307.23,418.58 326.13,450.17 326.65,451.54 C327.00,452.44 326.36,452.75 324.60,452.56 C323.20,452.41 322.30,452.67 322.59,453.15 C322.89,453.62 322.46,454.27 321.65,454.58 C320.84,454.89 319.88,456.35 319.51,457.82 C318.54,461.73 314.29,466.89 311.46,467.60 C308.81,468.26 308.07,471.67 310.11,473.71 C310.72,474.32 311.05,475.35 310.84,475.99 C310.62,476.64 307.65,472.51 304.24,466.83 ZM 315.00 436.97 C315.00,436.40 314.33,435.68 313.50,435.36 C312.67,435.05 312.00,434.21 312.00,433.52 C312.00,432.82 311.42,431.76 310.71,431.17 C309.73,430.36 309.38,430.58 309.27,432.05 C309.19,433.12 309.62,434.00 310.23,434.00 C310.84,434.00 311.06,434.27 310.73,434.61 C309.92,435.41 312.17,437.91 313.75,437.96 C314.44,437.98 315.00,437.54 315.00,436.97 ZM 369.50 375.00 C372.23,373.83 373.00,373.83 373.00,375.00 C373.00,375.55 371.76,375.97 370.25,375.93 C367.81,375.87 367.73,375.76 369.50,375.00 ZM 559.58 362.84 C560.28,358.64 558.94,357.48 553.00,357.15 C551.08,357.05 549.04,356.34 548.47,355.58 C547.86,354.78 546.18,354.36 544.41,354.56 C541.65,354.88 541.41,354.67 541.58,352.12 C541.71,350.32 541.29,349.33 540.39,349.33 C539.62,349.33 538.94,349.71 538.88,350.17 C538.81,350.62 538.64,351.45 538.50,352.00 C538.36,352.55 538.19,353.45 538.12,354.00 C538.06,354.55 537.44,355.00 536.75,355.01 C536.06,355.01 534.73,356.36 533.80,358.01 C532.86,359.65 531.59,361.00 530.96,361.00 C530.30,361.00 530.66,359.66 531.82,357.75 C532.91,355.96 536.93,349.10 540.74,342.50 C544.56,335.90 549.05,328.25 550.74,325.50 C552.42,322.75 558.80,311.90 564.91,301.40 L 576.03 282.30 L 585.17 281.65 C590.20,281.29 599.41,281.00 605.65,281.00 C615.91,281.00 617.00,281.17 617.00,282.80 C617.00,283.79 617.53,285.13 618.18,285.78 C619.08,286.68 618.96,287.39 617.68,288.81 C615.58,291.12 615.56,292.39 617.61,294.09 C618.82,295.09 619.10,296.62 618.75,300.25 C618.22,305.79 619.28,306.86 625.68,307.20 C627.78,307.31 623.88,307.65 617.01,307.95 C606.71,308.40 604.47,308.78 604.22,310.08 C604.05,310.95 608.19,318.82 613.42,327.58 C622.58,342.94 622.83,343.51 620.46,343.82 C619.11,343.99 618.00,344.78 618.00,345.57 C618.00,346.35 617.65,347.00 617.23,347.00 C616.80,347.00 613.65,349.71 610.23,353.02 C605.88,357.22 604.00,359.78 604.00,361.52 C604.00,362.88 603.65,364.00 603.23,364.00 C602.80,364.00 599.31,358.81 595.48,352.48 C591.64,346.14 587.15,338.72 585.50,335.99 C583.85,333.27 582.07,331.17 581.54,331.34 C581.01,331.51 577.63,336.40 574.04,342.22 C558.10,368.02 558.90,366.88 559.58,362.84 Z" fill="rgba(223,193,97,1)"/>
</g>
</svg>